<?xml version="1.0" encoding="utf-8"?>
<!-- Generator: Adobe Illustrator 23.1.0, SVG Export Plug-In . SVG Version: 6.00 Build 0)  -->
<svg version="1.1" xmlns="http://www.w3.org/2000/svg" xmlns:xlink="http://www.w3.org/1999/xlink" x="0px" y="0px"
	 viewBox="0 0 1200 1200" style="enable-background:new 0 0 1200 1200;" xml:space="preserve">
<style type="text/css">
	.st0{fill:#F3F6FA;}
	.st1{fill:#D4F1F3;}
	.st2{fill:#C7D8FD;}
	.st3{fill:#FABBD8;}
	.st4{fill:#FCE088;}
	.st5{fill:#6179EF;}
	.st6{fill:#F1F6FF;}
	.st7{fill:#D0E2FF;}
	.st8{fill:url(#SVGID_1_);}
	.st9{opacity:0.19;fill:#0B1066;}
	.st10{fill:#99A2EB;}
	.st11{fill:#FFFFFF;}
	.st12{fill:#B4D1FF;}
	.st13{fill:#F2F5F9;}
	.st14{fill:none;stroke:#F5634A;stroke-miterlimit:10;}
	.st15{fill:#FFFFFF;stroke:#F5634A;stroke-miterlimit:10;}
	.st16{fill:url(#SVGID_2_);}
	.st17{fill:#856CF2;}
	.st18{fill:#F9BC00;}
	.st19{fill:#F16261;}
	.st20{fill:url(#SVGID_3_);}
	.st21{fill:url(#SVGID_4_);}
	.st22{fill:#DEE8FF;}
	.st23{fill:#B0CAE0;}
	.st24{fill:#53C8CE;}
	.st25{fill:#E5ECF5;}
	.st26{fill:#FACA00;}
	.st27{opacity:0.19;}
	.st28{fill:#0B1066;}
	.st29{fill:#5DD777;}
	.st30{fill:url(#SVGID_5_);}
	.st31{fill:#F5634A;}
	.st32{fill:url(#SVGID_6_);}
	.st33{fill:#FBD72A;}
	.st34{fill:url(#SVGID_7_);}
	.st35{fill:#B6D2FF;}
	.st36{fill:#F56463;}
	.st37{fill:#FDEBE5;}
	.st38{fill:#F9D62B;}
	.st39{fill:#FEFFF9;}
	.st40{fill:#1D2088;}
	.st41{fill:url(#SVGID_8_);}
	.st42{fill:#8E74F3;}
	.st43{fill:#F66463;}
	.st44{fill:#2C6FFF;}
	.st45{fill:#EFB594;}
	.st46{fill:#241F4B;}
	.st47{fill:#2942C5;}
	.st48{fill:url(#SVGID_9_);}
	.st49{fill:#150B48;}
	.st50{fill:#423566;}
	.st51{fill:#FBCFBC;}
	.st52{fill:#E04034;}
	.st53{fill:url(#SVGID_10_);}
	.st54{fill:#C1DEFF;}
	.st55{fill:#193C87;}
	.st56{fill:#E5E6EB;}
	.st57{fill:#D1AA05;}
	.st58{fill:url(#SVGID_11_);}
	.st59{fill:#9175F5;}
	.st60{fill:#8AAAFF;}
	.st61{fill:url(#SVGID_12_);}
	.st62{fill:#10224F;}
	.st63{fill:#211D42;}
	.st64{fill:#322D76;}
	.st65{fill:#E84538;}
	.st66{fill:url(#SVGID_13_);}
	.st67{fill:#222220;}
	.st68{fill:url(#SVGID_14_);}
	.st69{fill:#5B9BFD;}
	.st70{fill:#EC6941;}
	.st71{fill:#EB3F17;}
	.st72{fill:#E59A05;}
	.st73{fill:#1A96CF;}
	.st74{fill:#193D9D;}
	.st75{fill:#365ECE;}
	.st76{fill:url(#SVGID_15_);}
	.st77{fill:url(#SVGID_16_);}
	.st78{fill:#F385B5;}
	.st79{fill:#E26DA5;}
	.st80{fill:url(#SVGID_17_);}
	.st81{fill:#2A5CD0;}
	.st82{fill:#F7F8F8;}
	.st83{fill:url(#SVGID_18_);}
	.st84{fill:url(#SVGID_19_);}
	.st85{fill:#DCE7FF;}
	.st86{fill:#3970FF;}
	.st87{fill:url(#SVGID_20_);}
	.st88{fill:#FCBD1F;}
	.st89{clip-path:url(#SVGID_22_);fill:#718BEA;}
	.st90{clip-path:url(#SVGID_22_);fill:#708AEA;}
	.st91{clip-path:url(#SVGID_22_);fill:#6F89EB;}
	.st92{clip-path:url(#SVGID_22_);fill:#6E88EB;}
	.st93{clip-path:url(#SVGID_22_);fill:#6D87EB;}
	.st94{clip-path:url(#SVGID_22_);fill:#6C86EB;}
	.st95{clip-path:url(#SVGID_22_);fill:#6B85EC;}
	.st96{clip-path:url(#SVGID_22_);fill:#6A84EC;}
	.st97{clip-path:url(#SVGID_22_);fill:#6983EC;}
	.st98{clip-path:url(#SVGID_22_);fill:#6981ED;}
	.st99{clip-path:url(#SVGID_22_);fill:#6880ED;}
	.st100{clip-path:url(#SVGID_22_);fill:#677FED;}
	.st101{clip-path:url(#SVGID_22_);fill:#667EEE;}
	.st102{clip-path:url(#SVGID_22_);fill:#657DEE;}
	.st103{clip-path:url(#SVGID_22_);fill:#647CEE;}
	.st104{clip-path:url(#SVGID_22_);fill:#637BEE;}
	.st105{clip-path:url(#SVGID_22_);fill:#627AEF;}
	.st106{clip-path:url(#SVGID_22_);fill:#6179EF;}
	.st107{clip-path:url(#SVGID_24_);fill:#718BEA;}
	.st108{clip-path:url(#SVGID_24_);fill:#708AEA;}
	.st109{clip-path:url(#SVGID_24_);fill:#6F89EB;}
	.st110{clip-path:url(#SVGID_24_);fill:#6E88EB;}
	.st111{clip-path:url(#SVGID_24_);fill:#6D87EB;}
	.st112{clip-path:url(#SVGID_24_);fill:#6C86EB;}
	.st113{clip-path:url(#SVGID_24_);fill:#6B85EC;}
	.st114{clip-path:url(#SVGID_24_);fill:#6A84EC;}
	.st115{clip-path:url(#SVGID_24_);fill:#6983EC;}
	.st116{clip-path:url(#SVGID_24_);fill:#6981ED;}
	.st117{clip-path:url(#SVGID_24_);fill:#6880ED;}
	.st118{clip-path:url(#SVGID_24_);fill:#677FED;}
	.st119{clip-path:url(#SVGID_24_);fill:#667EEE;}
	.st120{clip-path:url(#SVGID_24_);fill:#657DEE;}
	.st121{clip-path:url(#SVGID_24_);fill:#647CEE;}
	.st122{clip-path:url(#SVGID_24_);fill:#637BEE;}
	.st123{clip-path:url(#SVGID_24_);fill:#627AEF;}
	.st124{clip-path:url(#SVGID_24_);fill:#6179EF;}
	.st125{fill:#6252DB;}
	.st126{fill:url(#SVGID_25_);}
	.st127{fill:url(#SVGID_26_);}
	.st128{clip-path:url(#SVGID_28_);fill:#202875;}
	.st129{clip-path:url(#SVGID_28_);fill:#202774;}
	.st130{clip-path:url(#SVGID_28_);fill:#202773;}
	.st131{clip-path:url(#SVGID_28_);fill:#1F2672;}
	.st132{clip-path:url(#SVGID_28_);fill:#1F2571;}
	.st133{clip-path:url(#SVGID_28_);fill:#1F2570;}
	.st134{clip-path:url(#SVGID_28_);fill:#1F246F;}
	.st135{clip-path:url(#SVGID_28_);fill:#1E236E;}
	.st136{clip-path:url(#SVGID_28_);fill:#1E236D;}
	.st137{clip-path:url(#SVGID_28_);fill:#1E226C;}
	.st138{clip-path:url(#SVGID_28_);fill:#1E226B;}
	.st139{clip-path:url(#SVGID_28_);fill:#1D216A;}
	.st140{clip-path:url(#SVGID_28_);fill:#1D2069;}
	.st141{clip-path:url(#SVGID_28_);fill:#1D2068;}
	.st142{clip-path:url(#SVGID_28_);fill:#1D1F67;}
	.st143{clip-path:url(#SVGID_28_);fill:#1C1E66;}
	.st144{clip-path:url(#SVGID_28_);fill:#1C1E65;}
	.st145{clip-path:url(#SVGID_28_);fill:#1C1D64;}
	.st146{clip-path:url(#SVGID_28_);fill:#1C1C63;}
	.st147{clip-path:url(#SVGID_28_);fill:#1B1C62;}
	.st148{clip-path:url(#SVGID_28_);fill:#1B1B61;}
	.st149{clip-path:url(#SVGID_28_);fill:#1B1A60;}
	.st150{clip-path:url(#SVGID_28_);fill:#1B1A5F;}
	.st151{clip-path:url(#SVGID_28_);fill:#1A195E;}
	.st152{clip-path:url(#SVGID_28_);fill:#1A195D;}
	.st153{clip-path:url(#SVGID_28_);fill:#1A185B;}
	.st154{clip-path:url(#SVGID_28_);fill:#1A175A;}
	.st155{clip-path:url(#SVGID_28_);fill:#191759;}
	.st156{clip-path:url(#SVGID_28_);fill:#191658;}
	.st157{clip-path:url(#SVGID_28_);fill:#191557;}
	.st158{clip-path:url(#SVGID_28_);fill:#191556;}
	.st159{clip-path:url(#SVGID_28_);fill:#181455;}
	.st160{clip-path:url(#SVGID_28_);fill:#181354;}
	.st161{clip-path:url(#SVGID_28_);fill:#181353;}
	.st162{clip-path:url(#SVGID_28_);fill:#181252;}
	.st163{clip-path:url(#SVGID_28_);fill:#171151;}
	.st164{clip-path:url(#SVGID_28_);fill:#171150;}
	.st165{clip-path:url(#SVGID_28_);fill:#17104F;}
	.st166{clip-path:url(#SVGID_28_);fill:#170F4E;}
	.st167{clip-path:url(#SVGID_28_);fill:#160F4D;}
	.st168{clip-path:url(#SVGID_28_);fill:#160E4C;}
	.st169{clip-path:url(#SVGID_28_);fill:#160E4B;}
	.st170{clip-path:url(#SVGID_28_);fill:#160D4A;}
	.st171{clip-path:url(#SVGID_28_);fill:#150C49;}
	.st172{clip-path:url(#SVGID_28_);fill:#150C48;}
	.st173{clip-path:url(#SVGID_28_);fill:#150B47;}
	.st174{clip-path:url(#SVGID_28_);fill:#150A46;}
	.st175{clip-path:url(#SVGID_28_);fill:#140A45;}
	.st176{clip-path:url(#SVGID_28_);fill:#140944;}
	.st177{fill:url(#SVGID_29_);}
	.st178{fill:#90BCFC;}
	.st179{fill:#191759;}
	.st180{fill:#B6D7FF;}
	.st181{fill:url(#SVGID_30_);}
	.st182{fill:url(#SVGID_31_);}
	.st183{fill:url(#SVGID_32_);}
	.st184{fill:url(#SVGID_33_);}
	.st185{fill:url(#SVGID_34_);}
	.st186{fill:#DBA203;}
	.st187{fill:url(#SVGID_35_);}
	.st188{fill:url(#SVGID_36_);}
	.st189{fill:url(#SVGID_37_);}
	.st190{fill:url(#SVGID_38_);}
	.st191{fill:url(#SVGID_39_);}
	.st192{fill:url(#SVGID_40_);}
	.st193{fill:#353B42;}
	.st194{fill:url(#SVGID_41_);}
	.st195{fill:url(#SVGID_42_);}
	.st196{fill:#F6AA94;}
	.st197{fill:url(#SVGID_43_);}
	.st198{fill:url(#SVGID_44_);}
	.st199{fill:#F3BE3E;}
	.st200{fill:#FACE46;}
	.st201{fill:url(#SVGID_45_);}
</style>
<g id="暂无内容">
	<g>
		<path class="st0" d="M654.3,275.25c-102.4,3.34-144.21-53.09-273.39-0.88S259.7,380.54,171.23,421.24S4.89,618.54,59.75,762.75
			s186.68,100.86,238,133.6s272.5,120.33,505.19,16.81c81.4-42.47,153.06,6.19,229.15-33.62c69.03-36.12,203.49-214.11,81.4-313.2
			s-98.21-123.87-147.75-220.3C926.11,268.91,817.1,269.94,654.3,275.25z"/>
		<path class="st17" d="M254.25,431.03l-150.67-2.2c-3.14-0.05-5.65-2.63-5.6-5.77l1.83-124.86c0.05-3.14,2.63-5.65,5.77-5.6
			l150.67,2.2c3.14,0.05,5.65,2.63,5.6,5.77l-1.83,124.86C259.98,428.57,257.39,431.08,254.25,431.03z"/>
		<g>
			<path class="st11" d="M180.28,362.66c0.44-0.02,0.88-0.06,1.33-0.16l50.64-43.39c-2.28-1.41-5.25-2.14-8.91-2.2
				c-14.25-0.22-28.5-0.42-42.75-0.63c-14.25-0.21-28.5-0.43-42.75-0.62c-4.09-0.06-7.29,0.81-9.7,2.48L180.28,362.66z"/>
			<path class="st11" d="M187.81,371.38c-2.07,1.77-4.62,2.64-7.16,2.6c-2.43-0.04-4.85-0.9-6.84-2.6l-50.74-43.32
				c-0.07,0.68-0.16,1.34-0.17,2.08c-0.31,19.99-0.6,39.99-0.88,59.98c-0.14,9.79,4.71,14.78,14.5,14.92
				c28.5,0.43,57,0.85,85.5,1.25c9.8,0.14,14.78-4.7,14.93-14.49c0.31-19.99,0.6-39.99,0.88-59.98c0.02-1.1-0.05-2.13-0.16-3.11
				L187.81,371.38z"/>
		</g>
		<g>
			<path class="st11" d="M922.17,925.54H200.64c-2.24,0-4.05-1.81-4.05-4.05V342.3c0-3.31,2.69-6,6-6h717.63c3.31,0,6,2.69,6,6
				v579.2C926.21,923.73,924.4,925.54,922.17,925.54z"/>
			<linearGradient id="SVGID_1_" gradientUnits="userSpaceOnUse" x1="196.5883" y1="369.6067" x2="926.2147" y2="369.6067">
				<stop  offset="0" style="stop-color:#718BEA"/>
				<stop  offset="1" style="stop-color:#6179EF"/>
			</linearGradient>
			<path class="st8" d="M926.21,402.91H196.59V342.3c0-3.31,2.69-6,6-6h717.63c3.31,0,6,2.69,6,6V402.91z"/>
			<linearGradient id="SVGID_2_" gradientUnits="userSpaceOnUse" x1="196.5883" y1="892.2367" x2="926.2147" y2="892.2367">
				<stop  offset="0" style="stop-color:#718BEA"/>
				<stop  offset="1" style="stop-color:#6179EF"/>
			</linearGradient>
			<path class="st16" d="M926.21,858.93H196.59v62.57c0,2.24,1.81,4.05,4.05,4.05h721.53c2.24,0,4.05-1.81,4.05-4.05V858.93z"/>
			<ellipse class="st11" cx="250.52" cy="371.73" rx="13.93" ry="14.31"/>
			<ellipse class="st11" cx="299.07" cy="371.73" rx="13.93" ry="14.31"/>
			<ellipse class="st11" cx="346.52" cy="371.73" rx="13.93" ry="14.31"/>
			<rect x="231.39" y="532.74" class="st85" width="418.19" height="294.32"/>
			<rect x="677.3" y="436.45" class="st85" width="217.65" height="64.27"/>
			<rect x="677.3" y="522.75" class="st85" width="64.88" height="64.27"/>
			<rect x="753.39" y="522.75" class="st85" width="64.88" height="64.27"/>
			<rect x="829.48" y="522.75" class="st85" width="64.88" height="64.27"/>
			<rect x="231.39" y="532.74" class="st86" width="98.21" height="44.81"/>
			<rect x="382.24" y="532.74" class="st86" width="98.21" height="44.81"/>
			<rect x="231.39" y="554.31" class="st18" width="98.21" height="23.24"/>
			<rect x="382.24" y="554.31" class="st18" width="98.21" height="23.24"/>
			<path class="st17" d="M649.58,665.29c-5.17-4.07-11.38-7.5-17.69-7.5c-15.63,0-17.7,29.37-41.29,29.37
				c-23.59,0-25.66-68.13-56.33-68.13s-39.52,94.17-60.46,94.17c-20.94,0-15.04-17.86-35.68-17.86c-20.64,0-60.46,88.42-93.78,88.42
				c-33.33,0-32.15-61.47-52.79-61.47c-16.65,0-44.23,43.54-60.16,85.01v19.76h418.19V665.29z"/>
			<path class="st69" d="M649.14,452.27H233.6c-1.22,0-2.21-0.99-2.21-2.21v-13.75c0-1.22,0.99-2.21,2.21-2.21h415.55
				c1.22,0,2.21,0.99,2.21,2.21v13.75C651.35,451.28,650.36,452.27,649.14,452.27z"/>
			<path class="st69" d="M649.14,479.22H233.6c-1.22,0-2.21-0.99-2.21-2.21v-13.75c0-1.22,0.99-2.21,2.21-2.21h415.55
				c1.22,0,2.21,0.99,2.21,2.21v13.75C651.35,478.23,650.36,479.22,649.14,479.22z"/>
			<path class="st69" d="M649.14,508.29H233.6c-1.22,0-2.21-0.99-2.21-2.21v-13.75c0-1.22,0.99-2.21,2.21-2.21h415.55
				c1.22,0,2.21,0.99,2.21,2.21v13.75C651.35,507.3,650.36,508.29,649.14,508.29z"/>
			<g>
				<linearGradient id="SVGID_3_" gradientUnits="userSpaceOnUse" x1="670.8854" y1="650.493" x2="958.5862" y2="816.5972">
					<stop  offset="0" style="stop-color:#718BEA"/>
					<stop  offset="1" style="stop-color:#6179EF"/>
				</linearGradient>
				<path class="st20" d="M950.97,827.54H678.5c-1.24,0-2.25-1.01-2.25-2.25V641.8c0-1.24,1.01-2.25,2.25-2.25h272.47
					c1.24,0,2.25,1.01,2.25,2.25v183.49C953.22,826.53,952.21,827.54,950.97,827.54z"/>
				<path class="st11" d="M927.57,768.09H703.94c-1.09,0-1.97-0.88-1.97-1.97v-12.26c0-1.09,0.88-1.97,1.97-1.97h223.63
					c1.09,0,1.97,0.88,1.97,1.97v12.26C929.54,767.21,928.66,768.09,927.57,768.09z"/>
				<path class="st54" d="M824.79,768.09H703.94c-1.09,0-1.97-0.88-1.97-1.97v-12.26c0-1.09,0.88-1.97,1.97-1.97h120.85
					c1.09,0,1.97,0.88,1.97,1.97v12.26C826.76,767.21,825.88,768.09,824.79,768.09z"/>
				<path class="st11" d="M867.03,740.54H703.94c-1.09,0-1.97-0.88-1.97-1.97v-12.26c0-1.09,0.88-1.97,1.97-1.97h163.09
					c1.09,0,1.97,0.88,1.97,1.97v12.26C869,739.66,868.12,740.54,867.03,740.54z"/>
				<path class="st38" d="M791.59,740.54h-87.65c-1.09,0-1.97-0.88-1.97-1.97V726.3c0-1.09,0.88-1.97,1.97-1.97h87.65
					c1.09,0,1.97,0.88,1.97,1.97v12.26C793.56,739.66,792.68,740.54,791.59,740.54z"/>
				<path class="st11" d="M867.03,796.86H703.94c-1.09,0-1.97-0.88-1.97-1.97v-12.26c0-1.09,0.88-1.97,1.97-1.97h163.09
					c1.09,0,1.97,0.88,1.97,1.97v12.26C869,795.98,868.12,796.86,867.03,796.86z"/>
				<path class="st38" d="M791.59,796.86h-87.65c-1.09,0-1.97-0.88-1.97-1.97v-12.26c0-1.09,0.88-1.97,1.97-1.97h87.65
					c1.09,0,1.97,0.88,1.97,1.97v12.26C793.56,795.98,792.68,796.86,791.59,796.86z"/>
				<path class="st11" d="M867.03,682.71H703.94c-1.09,0-1.97-0.88-1.97-1.97v-12.26c0-1.09,0.88-1.97,1.97-1.97h163.09
					c1.09,0,1.97,0.88,1.97,1.97v12.26C869,681.82,868.12,682.71,867.03,682.71z"/>
				<path class="st38" d="M791.59,682.71h-87.65c-1.09,0-1.97-0.88-1.97-1.97v-12.26c0-1.09,0.88-1.97,1.97-1.97h87.65
					c1.09,0,1.97,0.88,1.97,1.97v12.26C793.56,681.82,792.68,682.71,791.59,682.71z"/>
				<path class="st11" d="M928.67,711.17H703.94c-1.09,0-1.97-0.88-1.97-1.97v-12.26c0-1.09,0.88-1.97,1.97-1.97h224.73
					c1.09,0,1.97,0.88,1.97,1.97v12.26C930.64,710.29,929.76,711.17,928.67,711.17z"/>
				<path class="st54" d="M884.43,711.17H703.94c-1.09,0-1.97-0.88-1.97-1.97v-12.26c0-1.09,0.88-1.97,1.97-1.97h180.49
					c1.09,0,1.97,0.88,1.97,1.97v12.26C886.4,710.29,885.52,711.17,884.43,711.17z"/>
			</g>
		</g>
		<path class="st9" d="M868.67,596.3l-54.38-56.97c-1.33-1.4-3.55-1.45-4.95-0.11l-4.58,4.37l-8.82-9.18
			c7.83-11,12.48-24.41,12.48-38.9c0-37.12-30.2-67.33-67.32-67.33s-67.33,30.2-67.33,67.33s30.2,67.33,67.33,67.33
			c15.29,0,29.37-5.18,40.68-13.81l8.27,8.61l-5.06,4.84c-1.4,1.33-1.45,3.55-0.12,4.95l54.38,56.97c1.33,1.4,3.55,1.45,4.95,0.11
			l24.35-23.25C869.95,599.91,870,597.69,868.67,596.3z M741.09,542.49c-25.91,0-46.99-21.08-46.99-46.99
			c0-25.91,21.08-46.99,46.99-46.99c25.91,0,46.99,21.08,46.99,46.99C788.08,521.41,767,542.49,741.09,542.49z"/>
		<path class="st88" d="M863.37,587.78l-53.56-56.11c-1.31-1.38-3.5-1.43-4.87-0.11l-4.51,4.3l-8.69-9.04
			c7.71-10.83,12.29-24.04,12.29-38.32c0-36.56-29.74-66.31-66.31-66.31s-66.31,29.75-66.31,66.31s29.75,66.31,66.31,66.31
			c15.06,0,28.92-5.11,40.07-13.6l8.15,8.48l-4.99,4.76c-1.38,1.31-1.43,3.5-0.11,4.87l53.56,56.11c1.31,1.38,3.5,1.43,4.87,0.11
			l23.98-22.9C864.64,591.34,864.69,589.16,863.37,587.78z M737.73,534.79c-25.52,0-46.28-20.76-46.28-46.28
			c0-25.52,20.76-46.28,46.28-46.28c25.52,0,46.28,20.76,46.28,46.28C784,514.03,763.25,534.79,737.73,534.79z"/>
		<g>
			<polygon class="st51" points="1026.14,937.64 1034.44,957.43 1015.42,960.64 1005.74,935.76 			"/>
			<polygon class="st51" points="953.81,934.69 956.62,958.58 935.75,960.93 932.73,933.95 			"/>
			<path class="st63" d="M958.74,949.93l-0.71-0.14c-0.54,0.67-1.32,1.71-1.32,1.71s-5.41,7.45-22.73,0.81
				c-9.58,5.97-10.91,8.04-18.29,10.4c-7.37,2.36-5.38,9.88-5.38,9.88s32.44-0.44,52.2-4.35
				C962.58,960.11,959.68,952.2,958.74,949.93z"/>
			<path class="st63" d="M1036.49,952.8l-0.71-0.14c-0.54,0.67-1.32,1.71-1.32,1.71s-5.41,7.45-22.73,0.81
				c-9.58,5.97-10.91,8.04-18.29,10.4c-7.37,2.36-5.38,9.88-5.38,9.88s32.44-0.44,52.2-4.35
				C1040.33,962.98,1037.42,955.08,1036.49,952.8z"/>
			<path class="st51" d="M933.08,457.62c0,0-5.88,5.07-8.31,16.31c-1.42,5.47-10.07,9.62-7.02,11.75c1.77,1.24,3.17,2.03,3.17,2.03
				s-10.23,16.72,2.84,19.45c13.07,2.74,17.37,7.83,15.6,29.51c-0.9,11.05,31.92,2.61,31.92,2.61s-10.13-27.05-2.43-54.5
				C941.8,458.13,933.08,457.62,933.08,457.62z"/>
			<path class="st62" d="M978.17,499.77c10.54-13.47,14.39-30.29,7.19-37.79c-7.19-7.5-18.24-5.47-28.16-12.26
				c-9.93-6.79-24.62-15.1-33.03-7.09c-8.41,8-6.28,33.94,16.01,34.75c9.12,0.2,11.04,4.76,7.8,12.77c-3.24,8,1.52,2.23,3.95,0.61
				c2.43-1.62,5.47-1.01,5.67,4.56s-3.34,6.99-7.19,6.99s1.72,11.35,5.88,13.58c4.15,2.23,7.5,3.65,13.07-3.95
				C974.93,504.33,978.17,499.77,978.17,499.77z"/>
			<path class="st51" d="M861.19,587.82c0,0-3.19-3.32-4.63-7.1c-1.43-3.78-6.63-12.46-9.3-12.98c-2.67-0.52-11.32,1.19-13.14,3.66
				c-1.82,2.48-3.32,5.8-2.93,7.43s3.42,7.62-0.03,8.14c-3.45,0.52-7.43,1.3-5.8,4.3c1.63,3,10.75,3.84,13.29,3.45
				c2.54-0.39,17.66,7.3,17.66,7.3L861.19,587.82z"/>
			<path class="st31" d="M939.51,526.28c0,0,13.35,13.71,27.87-1.92c8.85-0.66,27.57-3.02,30.67,21.6s7.96,89.09,2.65,108.55
				c-5.31,19.46-6.64,20.13-6.64,20.13l1.55,34.28c0,0-59.94,3.98-94.45-0.88c5.75-44.24,1.33-67.35,1.33-67.35l-51.32-36.61
				l10.62-20.35l40.15,19.13c0,0-3.65-73.05,18.14-76.37C929.93,524.17,939.51,526.28,939.51,526.28z"/>
			<path class="st65" d="M970.93,644.08c0,0-8.96-80.18-4.09-92.57c13.49,33.29,25.1,86.48,20.35,95.44
				C982.43,655.92,970.93,644.08,970.93,644.08z"/>
			<path class="st63" d="M909.13,698.02c0,0,7.94,110.82,9.58,129.4c2.36,26.62,12.39,117.37,12.39,117.37l25.66-3.53
				c0,0,0.88-91.39-1.77-109.03c4.72-16.68,8.85-100.69,8.85-100.69l2.36-29.82L909.13,698.02z"/>
			<path class="st64" d="M929.04,725.43c0,0,28.31,102.22,35.83,116.17c7.52,13.95,40.7,105.1,40.7,105.1l25.66-5.77l-34.51-119.29
				l-7.08-118.81L929.04,725.43z"/>
			<path class="st86" d="M1048.35,709.18l-184.76,34.24c-0.45,0.08-0.88-0.21-0.97-0.66l-14.72-79.43
				c-0.08-0.45,0.21-0.88,0.66-0.97l184.76-34.24c0.45-0.08,0.88,0.21,0.97,0.66l14.72,79.43
				C1049.09,708.66,1048.8,709.09,1048.35,709.18z"/>
			<path class="st11" d="M915.46,716.8l-44.19,8.19c-0.45,0.08-0.88-0.21-0.97-0.66l-8.63-46.55c-0.08-0.45,0.21-0.88,0.66-0.97
				l44.19-8.19c0.45-0.08,0.88,0.21,0.97,0.66l8.63,46.55C916.21,716.28,915.91,716.72,915.46,716.8z"/>
			<path class="st11" d="M967.33,706.4l-44.19,8.19c-0.45,0.08-0.88-0.21-0.97-0.66l-8.63-46.55c-0.08-0.45,0.21-0.88,0.66-0.97
				l44.19-8.19c0.45-0.08,0.88,0.21,0.97,0.66l8.63,46.55C968.08,705.89,967.78,706.32,967.33,706.4z"/>
			<path class="st11" d="M1028.4,656.68l-59.93,11.11c-0.45,0.08-0.88-0.21-0.97-0.66l-1.86-10.03c-0.08-0.45,0.21-0.88,0.66-0.97
				l59.93-11.11c0.45-0.08,0.88,0.21,0.97,0.66l1.86,10.03C1029.15,656.16,1028.85,656.6,1028.4,656.68z"/>
			<path class="st11" d="M1032.71,673.49l-59.93,11.11c-0.45,0.08-0.88-0.21-0.97-0.66l-1.86-10.03c-0.08-0.45,0.21-0.88,0.66-0.97
				l59.93-11.11c0.45-0.08,0.88,0.21,0.97,0.66l1.86,10.03C1033.46,672.97,1033.16,673.41,1032.71,673.49z"/>
			<path class="st11" d="M1036.14,691.07l-59.93,11.11c-0.45,0.08-0.88-0.21-0.97-0.66l-1.86-10.03c-0.08-0.45,0.21-0.88,0.66-0.97
				l59.93-11.11c0.45-0.08,0.88,0.21,0.97,0.66l1.86,10.03C1036.89,690.56,1036.59,690.99,1036.14,691.07z"/>
			<path class="st51" d="M967.53,697.87l15.81,2.71c0,0,1.71,14.99-2.05,20.85c-3.76,5.86-16.87,15.89-20.99,14.41
				s-0.74-7.08-0.74-7.08s-7.23,1.77-5.6-4.72C955.58,717.55,958.09,711.51,967.53,697.87z"/>
			<path class="st31" d="M966.79,529.75c0,0,14.3-12.83,27.57,1.25c7.52,8.14,12.24,106.43,9.73,117.07
				c-2.51,10.64-16.66,58.2-16.66,58.2l-24.04-5.32c0,0,15.78-55.39,15.04-62.58c-0.52-5.1-12-44.61-14.5-76.34
				C962.91,548.97,963.39,537.23,966.79,529.75z"/>
		</g>
		<g>
			<path class="st9" d="M1034.66,268.91H922.39c-34.86,0-63.12,29.25-63.12,65.33c0,23.16,11.68,43.45,29.23,55.05l-10.21,16.31
				l1.7,17.4l42.78-23.44h111.9c34.86,0,63.12-29.25,63.12-65.33S1069.52,268.91,1034.66,268.91z"/>
			<path class="st18" d="M1020.29,268.91H917.22c-32.01,0-57.95,25.95-57.95,57.95c0,20.54,10.72,38.55,26.84,48.84l-7.82,29.91
				l39.27-20.79h102.73c32,0,57.95-25.95,57.95-57.95S1052.3,268.91,1020.29,268.91z"/>
			<path class="st82" d="M1026.78,314.62H903.8c-1.22,0-2.21-0.99-2.21-2.21v-13.28c0-1.22,0.99-2.21,2.21-2.21h122.99
				c1.22,0,2.21,0.99,2.21,2.21v13.28C1028.99,313.63,1028,314.62,1026.78,314.62z"/>
			<path class="st82" d="M1001.86,348.69H903.8c-1.22,0-2.21-0.99-2.21-2.21V333.2c0-1.22,0.99-2.21,2.21-2.21h98.07
				c1.22,0,2.21,0.99,2.21,2.21v13.28C1004.07,347.7,1003.08,348.69,1001.86,348.69z"/>
		</g>
		<g>
			<g>
				<path class="st18" d="M545.98,874.98h-291.1c-1.71,0-3.09-1.38-3.09-3.09V619.56c0-1.71,1.38-3.09,3.09-3.09h291.1
					c1.71,0,3.09,1.38,3.09,3.09v252.33C549.07,873.6,547.68,874.98,545.98,874.98z"/>
			</g>
			<g>
				<path class="st31" d="M251.78,668.24c-29.29,0-92.41,0-107.71,0c-20.11,0-29.8,20.64-33.93,28.72
					c-4.13,8.08-43.62,91.92-46.86,98.2c-3.23,6.28-4.31,23.52-4.31,30.88c0,7.36,0,48.83,0,48.83h192.81V668.24z"/>
			</g>
			<g>
				<path class="st6" d="M88.95,856.56c3.67,0,6.64-2.97,6.64-6.64v-19.75c0-3.67-2.97-6.64-6.64-6.64H59.01
					c-0.02,0.92-0.04,1.78-0.04,2.51c0,4.05,0,18.41,0,30.52H88.95z"/>
			</g>
			<g>
				<path class="st71" d="M558.4,907.66H50.36c-3.37,0-6.1-2.73-6.1-6.1v-24.77c0-3.37,2.73-6.1,6.1-6.1H558.4
					c3.37,0,6.1,2.73,6.1,6.1v24.77C564.51,904.92,561.78,907.66,558.4,907.66z"/>
			</g>
			<g>
				<g>
					<defs>
						<circle id="SVGID_21_" cx="142.27" cy="904.42" r="53.86"/>
					</defs>
					<clipPath id="SVGID_4_">
						<use xlink:href="#SVGID_21_"  style="overflow:visible;"/>
					</clipPath>
					<rect x="88.42" y="850.57" style="clip-path:url(#SVGID_4_);fill:#718BEA;" width="5.98" height="107.71"/>
					<rect x="94.4" y="850.57" style="clip-path:url(#SVGID_4_);fill:#708AEA;" width="5.98" height="107.71"/>
					<rect x="100.38" y="850.57" style="clip-path:url(#SVGID_4_);fill:#6F89EB;" width="5.98" height="107.71"/>
					<rect x="106.37" y="850.57" style="clip-path:url(#SVGID_4_);fill:#6E88EB;" width="5.98" height="107.71"/>
					<rect x="112.35" y="850.57" style="clip-path:url(#SVGID_4_);fill:#6D87EB;" width="5.98" height="107.71"/>
					<rect x="118.34" y="850.57" style="clip-path:url(#SVGID_4_);fill:#6C86EB;" width="5.98" height="107.71"/>
					<rect x="124.32" y="850.57" style="clip-path:url(#SVGID_4_);fill:#6B85EC;" width="5.98" height="107.71"/>
					<rect x="130.3" y="850.57" style="clip-path:url(#SVGID_4_);fill:#6A84EC;" width="5.98" height="107.71"/>
					<rect x="136.29" y="850.57" style="clip-path:url(#SVGID_4_);fill:#6983EC;" width="5.98" height="107.71"/>
					<rect x="142.27" y="850.57" style="clip-path:url(#SVGID_4_);fill:#6981ED;" width="5.98" height="107.71"/>
					<rect x="148.26" y="850.57" style="clip-path:url(#SVGID_4_);fill:#6880ED;" width="5.98" height="107.71"/>
					<rect x="154.24" y="850.57" style="clip-path:url(#SVGID_4_);fill:#677FED;" width="5.98" height="107.71"/>
					<rect x="160.22" y="850.57" style="clip-path:url(#SVGID_4_);fill:#667EEE;" width="5.98" height="107.71"/>
					<rect x="166.21" y="850.57" style="clip-path:url(#SVGID_4_);fill:#657DEE;" width="5.98" height="107.71"/>
					<rect x="172.19" y="850.57" style="clip-path:url(#SVGID_4_);fill:#647CEE;" width="5.98" height="107.71"/>
					<rect x="178.18" y="850.57" style="clip-path:url(#SVGID_4_);fill:#637BEE;" width="5.98" height="107.71"/>
					<rect x="184.16" y="850.57" style="clip-path:url(#SVGID_4_);fill:#627AEF;" width="5.98" height="107.71"/>
					<rect x="190.14" y="850.57" style="clip-path:url(#SVGID_4_);fill:#6179EF;" width="5.98" height="107.71"/>
				</g>
			</g>
			<g>
				<circle class="st11" cx="142.27" cy="904.42" r="27.11"/>
			</g>
			<g>
				<g>
					<defs>
						<circle id="SVGID_23_" cx="460.15" cy="904.42" r="53.86"/>
					</defs>
					<clipPath id="SVGID_5_">
						<use xlink:href="#SVGID_23_"  style="overflow:visible;"/>
					</clipPath>
					<rect x="406.29" y="850.57" style="clip-path:url(#SVGID_5_);fill:#718BEA;" width="5.98" height="107.71"/>
					<rect x="412.27" y="850.57" style="clip-path:url(#SVGID_5_);fill:#708AEA;" width="5.98" height="107.71"/>
					<rect x="418.26" y="850.57" style="clip-path:url(#SVGID_5_);fill:#6F89EB;" width="5.98" height="107.71"/>
					<rect x="424.24" y="850.57" style="clip-path:url(#SVGID_5_);fill:#6E88EB;" width="5.98" height="107.71"/>
					<rect x="430.23" y="850.57" style="clip-path:url(#SVGID_5_);fill:#6D87EB;" width="5.98" height="107.71"/>
					<rect x="436.21" y="850.57" style="clip-path:url(#SVGID_5_);fill:#6C86EB;" width="5.98" height="107.71"/>
					<rect x="442.19" y="850.57" style="clip-path:url(#SVGID_5_);fill:#6B85EC;" width="5.98" height="107.71"/>
					<rect x="448.18" y="850.57" style="clip-path:url(#SVGID_5_);fill:#6A84EC;" width="5.98" height="107.71"/>
					<rect x="454.16" y="850.57" style="clip-path:url(#SVGID_5_);fill:#6983EC;" width="5.98" height="107.71"/>
					<rect x="460.15" y="850.57" style="clip-path:url(#SVGID_5_);fill:#6981ED;" width="5.98" height="107.71"/>
					<rect x="466.13" y="850.57" style="clip-path:url(#SVGID_5_);fill:#6880ED;" width="5.98" height="107.71"/>
					<rect x="472.11" y="850.57" style="clip-path:url(#SVGID_5_);fill:#677FED;" width="5.98" height="107.71"/>
					<rect x="478.1" y="850.57" style="clip-path:url(#SVGID_5_);fill:#667EEE;" width="5.98" height="107.71"/>
					<rect x="484.08" y="850.57" style="clip-path:url(#SVGID_5_);fill:#657DEE;" width="5.98" height="107.71"/>
					<rect x="490.07" y="850.57" style="clip-path:url(#SVGID_5_);fill:#647CEE;" width="5.98" height="107.71"/>
					<rect x="496.05" y="850.57" style="clip-path:url(#SVGID_5_);fill:#637BEE;" width="5.98" height="107.71"/>
					<rect x="502.03" y="850.57" style="clip-path:url(#SVGID_5_);fill:#627AEF;" width="5.98" height="107.71"/>
					<rect x="508.02" y="850.57" style="clip-path:url(#SVGID_5_);fill:#6179EF;" width="5.98" height="107.71"/>
				</g>
			</g>
			<g>
				<circle class="st11" cx="460.15" cy="904.42" r="27.11"/>
			</g>
			<g>
				<path class="st6" d="M194.57,693.43v90H92.84c0,0,32.07-66.78,41.41-80.9c7.18-10.29,11.01-9.1,18.43-9.1
					C160.1,693.43,194.57,693.43,194.57,693.43z"/>
			</g>
			<g>
				<g>
					<path class="st11" d="M218.03,825.31H192c-4.49,0-8.13-3.64-8.13-8.13c0-4.49,3.64-8.13,8.13-8.13h26.03
						c4.49,0,8.13,3.64,8.13,8.13C226.16,821.67,222.52,825.31,218.03,825.31z"/>
				</g>
			</g>
			<g>
				<path class="st11" d="M477.43,806.88H334.43c-0.97,0-1.75-0.78-1.75-1.75v-98.95c0-0.97,0.78-1.75,1.75-1.75h142.99
					c0.97,0,1.75,0.78,1.75,1.75v98.95C479.18,806.1,478.39,806.88,477.43,806.88z"/>
			</g>
			<g>
				<path class="st31" d="M422.37,740.34h-32.89c-0.97,0-1.75-0.78-1.75-1.75v-34.16h36.38v34.16
					C424.12,739.56,423.34,740.34,422.37,740.34z"/>
			</g>
		</g>
		<circle class="st69" cx="134.23" cy="558.18" r="88.57"/>
		<path class="st11" d="M162.26,619.4c-13.04,0.11-22.98-4.57-31.33-11.95c-22.49-19.87-39.87-43.23-45.51-73.48
			c-1.15-6.19-0.09-12.96,0.87-19.33c1.39-9.14,8.85-13.57,16.02-17.66c1.32-0.75,5.12,0.64,6.28,2.18
			c5.85,7.71,11.42,15.67,16.53,23.88c0.94,1.51-0.25,4.8-1.24,6.89c-0.65,1.38-2.71,2.09-4.13,3.1c-8.44,5.99-9.08,6.98-5.22,16.51
			c5.72,14.08,14.48,26.01,27,34.98c3.44,2.46,6.65,2.58,10.01-0.03c2.26-1.75,4.61-3.39,6.93-5.05c2.75-1.98,5.4-1.91,7.5,0.85
			c5.77,7.59,11.64,15.12,16.94,23.03c1.06,1.58,0.69,5.61-0.62,7.01C176.6,616.41,169.71,620.48,162.26,619.4z"/>
	</g>
</g>
<g id="图层_2">
</g>
</svg>
