<?xml version="1.0" encoding="utf-8"?>
<!-- Generator: Adobe Illustrator 23.1.0, SVG Export Plug-In . SVG Version: 6.00 Build 0)  -->
<svg version="1.1" xmlns="http://www.w3.org/2000/svg" xmlns:xlink="http://www.w3.org/1999/xlink" x="0px" y="0px"
	 viewBox="0 0 1200 1200" style="enable-background:new 0 0 1200 1200;" xml:space="preserve">
<style type="text/css">
	.st0{fill:#F3F6FA;}
	.st1{fill:#D4F1F3;}
	.st2{fill:#C7D8FD;}
	.st3{fill:#FABBD8;}
	.st4{fill:#FCE088;}
	.st5{fill:#6179EF;}
	.st6{fill:#F1F6FF;}
	.st7{fill:#D0E2FF;}
	.st8{fill:url(#SVGID_1_);}
	.st9{opacity:0.19;fill:#0B1066;}
	.st10{fill:#99A2EB;}
	.st11{fill:#FFFFFF;}
	.st12{fill:#B4D1FF;}
	.st13{fill:#F2F5F9;}
	.st14{fill:none;stroke:#F5634A;stroke-miterlimit:10;}
	.st15{fill:#FFFFFF;stroke:#F5634A;stroke-miterlimit:10;}
	.st16{fill:url(#SVGID_2_);}
	.st17{fill:#856CF2;}
	.st18{fill:#F9BC00;}
	.st19{fill:#F16261;}
	.st20{fill:url(#SVGID_3_);}
	.st21{fill:url(#SVGID_4_);}
	.st22{fill:#DEE8FF;}
	.st23{fill:#B0CAE0;}
	.st24{fill:#53C8CE;}
	.st25{fill:#E5ECF5;}
	.st26{fill:#FACA00;}
	.st27{opacity:0.19;}
	.st28{fill:#0B1066;}
	.st29{fill:#5DD777;}
	.st30{fill:url(#SVGID_5_);}
	.st31{fill:#F5634A;}
	.st32{fill:url(#SVGID_6_);}
	.st33{fill:#FBD72A;}
	.st34{fill:url(#SVGID_7_);}
	.st35{fill:#B6D2FF;}
	.st36{fill:#F56463;}
	.st37{fill:#FDEBE5;}
	.st38{fill:#F9D62B;}
	.st39{fill:#FEFFF9;}
	.st40{fill:#1D2088;}
	.st41{fill:url(#SVGID_8_);}
	.st42{fill:#8E74F3;}
	.st43{fill:#F66463;}
	.st44{fill:#2C6FFF;}
	.st45{fill:#EFB594;}
	.st46{fill:#241F4B;}
	.st47{fill:#2942C5;}
	.st48{fill:url(#SVGID_9_);}
	.st49{fill:#150B48;}
	.st50{fill:#423566;}
	.st51{fill:#FBCFBC;}
	.st52{fill:#E04034;}
	.st53{fill:url(#SVGID_10_);}
	.st54{fill:#C1DEFF;}
	.st55{fill:#193C87;}
	.st56{fill:#E5E6EB;}
	.st57{fill:#D1AA05;}
	.st58{fill:url(#SVGID_11_);}
	.st59{fill:#9175F5;}
	.st60{fill:#8AAAFF;}
	.st61{fill:url(#SVGID_12_);}
	.st62{fill:#10224F;}
	.st63{fill:#211D42;}
	.st64{fill:#322D76;}
	.st65{fill:#E84538;}
	.st66{fill:url(#SVGID_13_);}
	.st67{fill:#222220;}
	.st68{fill:url(#SVGID_14_);}
	.st69{fill:#5B9BFD;}
	.st70{fill:#EC6941;}
	.st71{fill:#EB3F17;}
	.st72{fill:#E59A05;}
	.st73{fill:#1A96CF;}
	.st74{fill:#193D9D;}
	.st75{fill:#365ECE;}
	.st76{fill:url(#SVGID_15_);}
	.st77{fill:url(#SVGID_16_);}
	.st78{fill:#F385B5;}
	.st79{fill:#E26DA5;}
	.st80{fill:url(#SVGID_17_);}
	.st81{fill:#2A5CD0;}
	.st82{fill:#F7F8F8;}
	.st83{fill:url(#SVGID_18_);}
	.st84{fill:url(#SVGID_19_);}
	.st85{fill:#DCE7FF;}
	.st86{fill:#3970FF;}
	.st87{fill:url(#SVGID_20_);}
	.st88{fill:#FCBD1F;}
	.st89{clip-path:url(#SVGID_22_);fill:#718BEA;}
	.st90{clip-path:url(#SVGID_22_);fill:#708AEA;}
	.st91{clip-path:url(#SVGID_22_);fill:#6F89EB;}
	.st92{clip-path:url(#SVGID_22_);fill:#6E88EB;}
	.st93{clip-path:url(#SVGID_22_);fill:#6D87EB;}
	.st94{clip-path:url(#SVGID_22_);fill:#6C86EB;}
	.st95{clip-path:url(#SVGID_22_);fill:#6B85EC;}
	.st96{clip-path:url(#SVGID_22_);fill:#6A84EC;}
	.st97{clip-path:url(#SVGID_22_);fill:#6983EC;}
	.st98{clip-path:url(#SVGID_22_);fill:#6981ED;}
	.st99{clip-path:url(#SVGID_22_);fill:#6880ED;}
	.st100{clip-path:url(#SVGID_22_);fill:#677FED;}
	.st101{clip-path:url(#SVGID_22_);fill:#667EEE;}
	.st102{clip-path:url(#SVGID_22_);fill:#657DEE;}
	.st103{clip-path:url(#SVGID_22_);fill:#647CEE;}
	.st104{clip-path:url(#SVGID_22_);fill:#637BEE;}
	.st105{clip-path:url(#SVGID_22_);fill:#627AEF;}
	.st106{clip-path:url(#SVGID_22_);fill:#6179EF;}
	.st107{clip-path:url(#SVGID_24_);fill:#718BEA;}
	.st108{clip-path:url(#SVGID_24_);fill:#708AEA;}
	.st109{clip-path:url(#SVGID_24_);fill:#6F89EB;}
	.st110{clip-path:url(#SVGID_24_);fill:#6E88EB;}
	.st111{clip-path:url(#SVGID_24_);fill:#6D87EB;}
	.st112{clip-path:url(#SVGID_24_);fill:#6C86EB;}
	.st113{clip-path:url(#SVGID_24_);fill:#6B85EC;}
	.st114{clip-path:url(#SVGID_24_);fill:#6A84EC;}
	.st115{clip-path:url(#SVGID_24_);fill:#6983EC;}
	.st116{clip-path:url(#SVGID_24_);fill:#6981ED;}
	.st117{clip-path:url(#SVGID_24_);fill:#6880ED;}
	.st118{clip-path:url(#SVGID_24_);fill:#677FED;}
	.st119{clip-path:url(#SVGID_24_);fill:#667EEE;}
	.st120{clip-path:url(#SVGID_24_);fill:#657DEE;}
	.st121{clip-path:url(#SVGID_24_);fill:#647CEE;}
	.st122{clip-path:url(#SVGID_24_);fill:#637BEE;}
	.st123{clip-path:url(#SVGID_24_);fill:#627AEF;}
	.st124{clip-path:url(#SVGID_24_);fill:#6179EF;}
	.st125{fill:#6252DB;}
	.st126{fill:url(#SVGID_25_);}
	.st127{fill:url(#SVGID_26_);}
	.st128{clip-path:url(#SVGID_28_);fill:#202875;}
	.st129{clip-path:url(#SVGID_28_);fill:#202774;}
	.st130{clip-path:url(#SVGID_28_);fill:#202773;}
	.st131{clip-path:url(#SVGID_28_);fill:#1F2672;}
	.st132{clip-path:url(#SVGID_28_);fill:#1F2571;}
	.st133{clip-path:url(#SVGID_28_);fill:#1F2570;}
	.st134{clip-path:url(#SVGID_28_);fill:#1F246F;}
	.st135{clip-path:url(#SVGID_28_);fill:#1E236E;}
	.st136{clip-path:url(#SVGID_28_);fill:#1E236D;}
	.st137{clip-path:url(#SVGID_28_);fill:#1E226C;}
	.st138{clip-path:url(#SVGID_28_);fill:#1E226B;}
	.st139{clip-path:url(#SVGID_28_);fill:#1D216A;}
	.st140{clip-path:url(#SVGID_28_);fill:#1D2069;}
	.st141{clip-path:url(#SVGID_28_);fill:#1D2068;}
	.st142{clip-path:url(#SVGID_28_);fill:#1D1F67;}
	.st143{clip-path:url(#SVGID_28_);fill:#1C1E66;}
	.st144{clip-path:url(#SVGID_28_);fill:#1C1E65;}
	.st145{clip-path:url(#SVGID_28_);fill:#1C1D64;}
	.st146{clip-path:url(#SVGID_28_);fill:#1C1C63;}
	.st147{clip-path:url(#SVGID_28_);fill:#1B1C62;}
	.st148{clip-path:url(#SVGID_28_);fill:#1B1B61;}
	.st149{clip-path:url(#SVGID_28_);fill:#1B1A60;}
	.st150{clip-path:url(#SVGID_28_);fill:#1B1A5F;}
	.st151{clip-path:url(#SVGID_28_);fill:#1A195E;}
	.st152{clip-path:url(#SVGID_28_);fill:#1A195D;}
	.st153{clip-path:url(#SVGID_28_);fill:#1A185B;}
	.st154{clip-path:url(#SVGID_28_);fill:#1A175A;}
	.st155{clip-path:url(#SVGID_28_);fill:#191759;}
	.st156{clip-path:url(#SVGID_28_);fill:#191658;}
	.st157{clip-path:url(#SVGID_28_);fill:#191557;}
	.st158{clip-path:url(#SVGID_28_);fill:#191556;}
	.st159{clip-path:url(#SVGID_28_);fill:#181455;}
	.st160{clip-path:url(#SVGID_28_);fill:#181354;}
	.st161{clip-path:url(#SVGID_28_);fill:#181353;}
	.st162{clip-path:url(#SVGID_28_);fill:#181252;}
	.st163{clip-path:url(#SVGID_28_);fill:#171151;}
	.st164{clip-path:url(#SVGID_28_);fill:#171150;}
	.st165{clip-path:url(#SVGID_28_);fill:#17104F;}
	.st166{clip-path:url(#SVGID_28_);fill:#170F4E;}
	.st167{clip-path:url(#SVGID_28_);fill:#160F4D;}
	.st168{clip-path:url(#SVGID_28_);fill:#160E4C;}
	.st169{clip-path:url(#SVGID_28_);fill:#160E4B;}
	.st170{clip-path:url(#SVGID_28_);fill:#160D4A;}
	.st171{clip-path:url(#SVGID_28_);fill:#150C49;}
	.st172{clip-path:url(#SVGID_28_);fill:#150C48;}
	.st173{clip-path:url(#SVGID_28_);fill:#150B47;}
	.st174{clip-path:url(#SVGID_28_);fill:#150A46;}
	.st175{clip-path:url(#SVGID_28_);fill:#140A45;}
	.st176{clip-path:url(#SVGID_28_);fill:#140944;}
	.st177{fill:url(#SVGID_29_);}
	.st178{fill:#90BCFC;}
	.st179{fill:#191759;}
	.st180{fill:#B6D7FF;}
	.st181{fill:url(#SVGID_30_);}
	.st182{fill:url(#SVGID_31_);}
	.st183{fill:url(#SVGID_32_);}
	.st184{fill:url(#SVGID_33_);}
	.st185{fill:url(#SVGID_34_);}
	.st186{fill:#DBA203;}
	.st187{fill:url(#SVGID_35_);}
	.st188{fill:url(#SVGID_36_);}
	.st189{fill:url(#SVGID_37_);}
	.st190{fill:url(#SVGID_38_);}
	.st191{fill:url(#SVGID_39_);}
	.st192{fill:url(#SVGID_40_);}
	.st193{fill:#353B42;}
	.st194{fill:url(#SVGID_41_);}
	.st195{fill:url(#SVGID_42_);}
	.st196{fill:#F6AA94;}
	.st197{fill:url(#SVGID_43_);}
	.st198{fill:url(#SVGID_44_);}
	.st199{fill:#F3BE3E;}
	.st200{fill:#FACE46;}
	.st201{fill:url(#SVGID_45_);}
</style>
<g id="暂无内容">
</g>
<g id="图层_2">
	<g>
		<path class="st0" d="M457.05,259.91c78.97,17.03,280.82-141.22,414.95-13.92s223.94,140.23,275.43,290.07
			c51.49,149.84-21.56,490.63-447.88,429.63c-77.84-19.89-160.47-27.85-268.25-17.24S94.79,994.87,63.65,699.16
			S148.08,193.28,457.05,259.91z"/>
		<path class="st125" d="M182.08,636.51V519.65c11.28-3.06,19.58-13.34,19.58-25.58c0-14.65-11.88-26.54-26.54-26.54
			c-14.66,0-26.54,11.88-26.54,26.54c0,12.25,8.31,22.53,19.59,25.58v130.76h303.96v-13.9H182.08z"/>
		<path class="st199" d="M1059.68,471.68v-68.2c-11.28-3.06-19.58-13.34-19.58-25.58c0-14.65,11.88-26.54,26.54-26.54
			c14.66,0,26.54,11.88,26.54,26.54c0,12.25-8.31,22.53-19.58,25.58v82.1H769.62v-13.9H1059.68z"/>
		<path class="st31" d="M124.17,579.33V462.47c11.28-3.06,19.58-13.34,19.58-25.58c0-14.65-11.88-26.54-26.54-26.54
			c-14.65,0-26.54,11.88-26.54,26.54c0,12.25,8.31,22.53,19.59,25.58v130.76h303.96v-13.9H124.17z"/>
		<g>
			<path class="st18" d="M686.57,337.87c-0.15-19.19-13.11-32.48-31.69-32.6c-30.97-0.21-61.94-0.21-92.91,0
				c-16.7,0.11-30.33,13.56-30.47,30.25c-0.27,31.68-0.28,63.37-0.02,95.06c0.13,15.58,12.89,28.92,28.35,29.46
				c15.81,0.56,31.66,0.12,47.49,0.12c0,0.08,0,0.15,0,0.23c15.42,0,30.83,0.01,46.25,0c19.61-0.02,32.85-12.79,33-32.5
				C686.8,397.88,686.81,367.87,686.57,337.87z M653.64,444.94c-29.85,0.04-59.7,0.04-89.55,0c-10.81-0.02-16.73-5.8-16.82-16.6
				c-0.12-15.28-0.03-30.57-0.03-45.85c0-14.58-0.03-29.16,0-43.75c0.03-12.3,5.78-18.09,18-18.1c29.15-0.02,58.3-0.03,87.45,0
				c12.82,0.01,18.79,6,18.79,18.78c0.01,29.16,0.01,58.33,0,87.49C671.49,438.61,665.28,444.93,653.64,444.94z"/>
			<path class="st18" d="M578.43,338.68c-7.1-0.41-10.32,1.68-10.67,6.94c-0.36,5.46,2.62,8.03,9.9,8.46
				c10.39,0.62,20.29,3.2,29.1,8.73c19.24,12.08,29.87,29.43,30.96,52.36c0.3,6.38,3.48,9.74,8.73,9.53
				c4.79-0.19,7.58-3.97,7.35-9.8C652.12,373.54,618.75,340.25,578.43,338.68z"/>
			<path class="st18" d="M577.24,367.81c-5.27-0.13-8.8,2.56-9.31,7.08c-0.51,4.49,2.52,7.73,7.89,8.51
				c2.76,0.4,5.58,0.65,8.26,1.39c14.47,3.98,24.01,16.39,24.92,31.78c0.13,2.27,1.12,4.9,2.61,6.58c2.18,2.47,5.3,2.87,8.45,1.22
				c3.7-1.93,4.58-5.03,4.64-9.05c-1.5-5.79-2.49-11.77-4.58-17.34C613.67,380.75,595.58,368.24,577.24,367.81z"/>
			<path class="st18" d="M580.13,398.41c-8.25-0.07-14.65,6.11-14.6,14.09c0.05,7.79,6.35,13.88,14.36,13.91
				c8.28,0.03,13.79-5.61,13.76-14.09C593.62,403.99,588.25,398.47,580.13,398.41z"/>
		</g>
		<g>
			<path class="st5" d="M951.47,409.86H344.39c-12.59,0-22.79,10.21-22.79,22.79V820.1c0,12.59,10.21,22.79,22.79,22.79h216.73
				v22.25h173.63V842.9h216.72c12.59,0,22.79-10.21,22.79-22.79V432.66C974.27,420.07,964.06,409.86,951.47,409.86z"/>
			<path class="st6" d="M942.18,812.35H353.43c-0.8,0-1.45-0.65-1.45-1.45V441.86c0-0.8,0.65-1.45,1.45-1.45h588.75
				c0.8,0,1.45,0.65,1.45,1.45V810.9C943.63,811.7,942.98,812.35,942.18,812.35z"/>
			<linearGradient id="SVGID_1_" gradientUnits="userSpaceOnUse" x1="208.3435" y1="873.5316" x2="1085.7174" y2="873.5316">
				<stop  offset="0" style="stop-color:#405AB1"/>
				<stop  offset="1" style="stop-color:#0B1066"/>
			</linearGradient>
			<path class="st8" d="M1079.12,884.66h-82.17c11.51-7.59,19.12-20.62,19.12-35.44l0,0H277.99l0,0c0,14.82,7.61,27.85,19.12,35.44
				h-82.17c-3.64,0-6.59,2.95-6.59,6.59c0,3.64,2.95,6.59,6.59,6.59h864.19c3.64,0,6.59-2.95,6.59-6.59
				C1085.72,887.61,1082.77,884.66,1079.12,884.66z"/>
		</g>
		<rect x="392.01" y="493.08" class="st7" width="50.96" height="299.76"/>
		<rect x="469.62" y="557.87" class="st24" width="50.96" height="234.97"/>
		<rect x="547.23" y="661.81" class="st7" width="50.96" height="131.03"/>
		<rect x="624.85" y="519.89" class="st69" width="50.96" height="272.95"/>
		<rect x="702.46" y="616.44" class="st7" width="50.96" height="176.4"/>
		<g>
			<path class="st9" d="M1135.32,824.56H658.74c-8.51,0-15.42-6.9-15.42-15.42V580.5c0-8.51,6.9-15.42,15.42-15.42h476.58
				c8.51,0,15.42,6.9,15.42,15.42v228.65C1150.73,817.66,1143.83,824.56,1135.32,824.56z"/>
			<path class="st199" d="M1119.34,800.89H654.65c-6.25,0-11.32-5.07-11.32-11.32V576.4c0-6.25,5.07-11.32,11.32-11.32h464.69
				c6.25,0,11.32,5.07,11.32,11.32v213.16C1130.66,795.82,1125.59,800.89,1119.34,800.89z"/>
			<rect x="914.23" y="616.44" class="st11" width="177.38" height="23.78"/>
			<rect x="914.23" y="669.91" class="st11" width="177.38" height="23.78"/>
			<rect x="914.23" y="723.37" class="st11" width="177.38" height="23.78"/>
			<circle class="st31" cx="772.23" cy="681.8" r="79.94"/>
			<path class="st17" d="M849.16,649.3c-12.68-29.96-42.34-50.99-76.92-50.99v83.49L849.16,649.3z"/>
			<path class="st69" d="M855.47,687.99c0.15-2.05,0.25-4.11,0.25-6.19c0-11.53-2.34-22.51-6.56-32.5l-76.92,32.5L855.47,687.99z"/>
		</g>
		<path class="st9" d="M990.74,540.81H786.38c-5.89,0-10.66-4.77-10.66-10.66V325.79c0-5.89,4.77-10.66,10.66-10.66h204.36
			c5.89,0,10.66,4.77,10.66,10.66v204.36C1001.4,536.04,996.63,540.81,990.74,540.81z"/>
		<path class="st17" d="M972.78,519.89H783.42c-4.25,0-7.7-3.45-7.7-7.7V322.83c0-4.25,3.45-7.7,7.7-7.7h189.35
			c4.25,0,7.7,3.45,7.7,7.7v189.35C980.48,516.44,977.03,519.89,972.78,519.89z"/>
		<path class="st11" d="M898.1,351.1v31.82c0,1.98-1.61,3.59-3.59,3.59h-10.88v18.04h58.32v39.99h10.81c1.98,0,3.59,1.61,3.59,3.59
			v31.8c0,1.98-1.61,3.59-3.59,3.59h-31.23c-1.98,0-3.59-1.61-3.59-3.59v-31.63c0-1.98,1.61-3.59,3.59-3.59h10.32v-29.94h-48.21
			v29.73h10.42c1.98,0,3.59,1.61,3.59,3.59v31.82c0,1.98-1.61,3.59-3.59,3.59h-31.19c-1.98,0-3.59-1.61-3.59-3.59v-31.69
			c0-1.98,1.61-3.59,3.59-3.59h10.54v-29.87h-48.24v29.83h10.28c1.98,0,3.59,1.61,3.59,3.59v32.07c0,1.98-1.61,3.59-3.59,3.59
			h-32.01c-1.98,0-3.59-1.61-3.59-3.59v-32.03c0-1.98,1.61-3.59,3.59-3.59h11.62v-40.15h58.34v-17.86h-11
			c-1.98,0-3.59-1.61-3.59-3.59V351.1c0-1.98,1.61-3.59,3.59-3.59h32.11C896.49,347.51,898.1,349.12,898.1,351.1z"/>
		<circle class="st31" cx="321.6" cy="398.96" r="115"/>
		<path class="st11" d="M411.86,398.13c-0.14-48.76-38.93-87.9-88.06-89.86v-0.08c-0.09,0-0.17-0.01-0.26-0.01
			c-0.65,0-1.29,0.03-1.94,0.04c-0.65-0.01-1.29-0.04-1.94-0.04c-0.09,0-0.17,0.01-0.26,0.01v0.08
			c-49.14,1.96-87.92,41.1-88.06,89.86c-0.15,49.77,39.31,90.31,88.06,91.55v0c0.12,0,0.25,0.01,0.37,0.01
			c0.38,0.01,0.76,0.04,1.14,0.04c0.23,0,0.46,0,0.69-0.01c0.23,0,0.46,0.01,0.69,0.01c0.38,0,0.76-0.03,1.14-0.04
			c0.12,0,0.25-0.01,0.37-0.01v0C372.55,488.45,412.01,447.9,411.86,398.13z M315.67,321c0,11.13,0,22.26,0,34.75
			c-8.08-1.87-15.93-3.68-25.69-5.93c8.83-10.81,16.53-20.24,24.23-29.68C314.7,320.42,315.18,320.71,315.67,321z M315.69,368.22
			c0,7.47,0,15.47,0,23.92c-12,0-24.02,0-37.23,0c2.44-10.76,4.74-20.93,7-30.92C296.4,363.75,305.81,365.93,315.69,368.22z
			 M290.66,326.29c0.25,0.41,0.49,0.83,0.74,1.24c-3.57,5.35-7.13,10.7-10.96,16.45c-2.6-1.68-5.17-3.34-9.02-5.83
			C278.34,333.88,284.5,330.09,290.66,326.29z M262.73,347.3c0.9,0.23,1.09,0.24,1.23,0.33c3.47,2.38,8.58,4.1,9.93,7.37
			c1.26,3.06-1.57,7.75-2.39,11.76c-1.47,7.22-2.63,14.51-4.25,21.69c-0.35,1.53-2.06,3.84-3.25,3.92
			c-6.45,0.39-12.93,0.18-20.08,0.18C245.29,374.99,251.81,360.33,262.73,347.3z M243.75,405.13c7.77,0,15.22,0,22.3,0
			c2.67,12.12,5.33,24.19,8.1,36.74c-3.45,2.38-7.46,5.15-11.76,8.11C251.42,437.05,245.18,422.36,243.75,405.13z M290.72,471.58
			c-6.42-3.94-12.85-7.87-20.23-12.4c3.9-2.64,6.48-4.39,9.35-6.33c4,6.1,7.79,11.89,11.59,17.69
			C291.19,470.89,290.95,471.23,290.72,471.58z M315.65,477.49c-10.4-8.69-18.2-18.4-24.81-30.83c8.38-2.01,16.28-3.9,24.81-5.95
			C315.65,453.37,315.65,464.98,315.65,477.49z M315.87,428.34c-10.01,2.31-19.85,4.59-30.78,7.12c-2.15-9.88-4.33-19.92-6.61-30.44
			c12.92,0,24.87,0,37.39,0C315.87,413.08,315.87,420.78,315.87,428.34z M380.46,347.3c10.91,13.03,17.44,27.69,18.81,45.24
			c-7.15,0-13.63,0.2-20.08-0.18c-1.19-0.07-2.9-2.38-3.25-3.92c-1.62-7.18-2.79-14.47-4.25-21.69c-0.82-4.01-3.65-8.7-2.39-11.76
			c1.35-3.27,6.46-4.98,9.93-7.37C379.37,347.54,379.56,347.53,380.46,347.3z M352.53,326.29c6.16,3.79,12.31,7.59,19.24,11.86
			c-3.84,2.48-6.42,4.15-9.02,5.83c-3.83-5.74-7.4-11.1-10.96-16.45C352.04,327.12,352.29,326.71,352.53,326.29z M327.52,321
			c0.49-0.29,0.97-0.57,1.46-0.86c7.7,9.43,15.41,18.87,24.23,29.68c-9.76,2.25-17.61,4.07-25.69,5.93
			C327.52,343.26,327.52,332.13,327.52,321z M327.5,368.22c9.88-2.29,19.3-4.47,30.23-7.01c2.26,9.99,4.56,20.16,7,30.92
			c-13.21,0-25.23,0-37.23,0C327.5,383.69,327.5,375.69,327.5,368.22z M327.33,405.02c12.52,0,24.46,0,37.39,0
			c-2.28,10.51-4.46,20.56-6.61,30.44c-10.93-2.53-20.77-4.8-30.78-7.12C327.33,420.78,327.33,413.08,327.33,405.02z M327.54,477.49
			c0-12.51,0-24.12,0-36.78c8.54,2.05,16.44,3.94,24.81,5.95C345.75,459.09,337.94,468.8,327.54,477.49z M352.47,471.58
			c-0.24-0.35-0.47-0.7-0.71-1.04c3.8-5.79,7.59-11.59,11.59-17.69c2.86,1.94,5.44,3.69,9.35,6.33
			C365.32,463.71,358.9,467.64,352.47,471.58z M369.03,441.88c2.77-12.56,5.43-24.62,8.1-36.74c7.08,0,14.53,0,22.3,0
			c-1.43,17.23-7.66,31.91-18.64,44.86C376.5,447.03,372.49,444.26,369.03,441.88z"/>
		<path class="st9" d="M469.17,774.47H151.13c-10.42,0-18.86-8.44-18.86-18.86v-62.9c0-10.42,8.44-18.86,18.86-18.86h318.04
			c10.42,0,18.86,8.44,18.86,18.86v62.9C488.03,766.03,479.59,774.47,469.17,774.47z"/>
		<path class="st17" d="M458.86,758.99H146.79c-8.02,0-14.53-6.5-14.53-14.53v-56.09c0-8.02,6.5-14.53,14.53-14.53h312.07
			c8.02,0,14.53,6.5,14.53,14.53v56.09C473.39,752.49,466.88,758.99,458.86,758.99z"/>
		<circle class="st11" cx="186.32" cy="716.42" r="22.82"/>
		<circle class="st11" cx="251.61" cy="716.42" r="22.82"/>
		<circle class="st11" cx="316.89" cy="716.42" r="22.82"/>
		<circle class="st18" cx="429.95" cy="716.42" r="22.82"/>
		<circle class="st69" cx="206.6" cy="873.53" r="76.86"/>
		<path class="st11" d="M230.92,926.66c-11.32,0.1-19.94-3.97-27.18-10.37c-19.51-17.24-34.6-37.51-39.49-63.76
			c-1-5.37-0.08-11.25,0.76-16.77c1.2-7.93,7.68-11.77,13.9-15.32c1.14-0.65,4.44,0.56,5.45,1.89c5.07,6.69,9.91,13.6,14.35,20.73
			c0.82,1.31-0.22,4.16-1.08,5.98c-0.56,1.19-2.35,1.81-3.59,2.69c-7.32,5.2-7.88,6.06-4.53,14.33
			c4.96,12.22,12.57,22.57,23.43,30.35c2.99,2.14,5.77,2.24,8.69-0.03c1.96-1.52,4-2.94,6.01-4.39c2.39-1.71,4.69-1.66,6.51,0.74
			c5,6.59,10.1,13.12,14.7,19.98c0.92,1.37,0.6,4.87-0.54,6.08C243.37,924.06,237.38,927.59,230.92,926.66z"/>
		<circle class="st17" cx="653.81" cy="950.39" r="33.12"/>
	</g>
</g>
</svg>
