<svg width="1107" height="1327" fill="none" xmlns="http://www.w3.org/2000/svg"><path d="M386.468 457.402c-41.873-21.547-36.588-137.715-3.049-109.765l-8.131-47.261 8.131-141.272L501.823 82.37l181.926 41.67 34.556 90.963 18.294 129.076c66.062-36.08 61.489 120.437-3.557 113.323l-18.803 55.391-84.356 68.095-184.975-17.278-55.899-82.832-2.541-23.376z" fill="#FFE1C3"/><path d="M399.5 698c20.8-38.8 59.333-48.5 76-48.5v22L455 698l11 88-11 10.5L116.5 1091l-99 126c-4.167-3-12.6-18.9-13-58.5-.4-39.6 71.5-148.5 107.5-198C217 805.5 263 721 399.5 698z" fill="#5DB3E3"/><path d="M456.5 794c-72.8-80-18.333-122.833 17.5-134.5l50.5 130-285 265c-21.5 48.5-61.5 166.17-125 185C55.5 1257 27 1237 12 1207c77.5-205 198-361.5 385-484.5 11 46 50 69 59.5 71.5zM774.5 668c-18.4-18.8-67.667-25.5-90-26.5V692l12 17L831 1014.5l18.5 14 4-25.5 43 71.5c-2.5 1-9.4 3-17 3 12.8 36-5.333 76.33-16 92l76 55.5 107 19 40-38.5c-5-220.5-184-442-272-486.5-5.667-9.167-21.6-32.2-40-51z" fill="#52A7DD"/><path d="M807 699.5c-6.4-12.4-28-26.833-38-32.5 8.4 15.6-1.167 39.167-7 49 1.167-1.167 11.1-1.1 41.5 8.5C967 776.132 1100.56 1158 1073 1206c-22.05 38.4-109.188 5.33-150-16l4-13.5-57.5-15.5-11 18c4 2.5 16.6 10.4 35 22 50.5 78 198 84.5 208.5 0 8.4-67.6-51.5-219.5-82.5-287C932 721 826 699.5 807 699.5zM172 1144c-19.2 34.4-67.5 86-99 105 69.6-2 110.333-64.17 122-95-.167-1.5-5-5.6-23-10z" fill="#1E7EBD"/><path d="M965.5 873.5l4.5 9M951.5 848.5c4.5 6.5 6 10 8.5 13.5" stroke="#3E241A" stroke-width="5"/><path d="M471.841 698.783v-59.964c85.373 65.859 161.599 0 213.432-47.768l-1.016 104.683c40.654 33.54-36.588 100.618-89.432 127.552-5.088 43.194-7.629 68.603-11.186 88.93-18.401 9.382-32.015 6.606-52.85-2.033-1.016-27.949-3.049-83.34-3.049-83.34-90.963-63.522-65.554-110.782-55.899-128.06z" fill="#FFE1C4"/><path d="M474.333 671.342l1-31.523c79.681 60.168 171.15-7.437 208.924-48.26v38.113c-74.701 77.75-170.795 73.685-209.924 41.67z" fill="#EEB499"/><path d="M358 871C290 743.8 128.333 669 58 650c8.333 17.5 23 52.5 15 52.5H37c4.333 10.833 12 32.1 8 30.5-5-2-15-6-32-6 172 244 191 454 199 512 62 14 127 39 221 83 131-29 339-53 411-60-10.4-64-16-374.333-18-521.5-4.667.167-16.9 1-28.5 3 0-9.2 2.333-23.833 3.5-30-16-2-34.333-.833-41.5 0 0-1.833-.5-6.6-2.5-11-219.919 28.297-298.872 90.109-396.883 166.842L358 871z" fill="#fff"/><path d="M245 1054l50 11M299 1072c3 39.67 9.6 127 12 159-23.2-8.8-59.667-19.67-75-24M229 1152c1 9.33 3.8 31.6 7 46M241 1075l44 9M236 1115l40 7M234 1099l39 7M267 1091l16 5M243 1135l39 8" stroke="#BABABA" stroke-width="6"/><path d="M241 1168l5 28 19 5-4-30-20-8M270 1170l21 6M279 1205l20 7M280 1183l13 5M320 1088c4.333 31.67 13.6 105.8 16 149 32.8 18.4 57.667 30.33 66 34m-10-172c-15.333-7-51.2-22.2-72-27M399 1104c3 34 8.6 109.8 7 141M345 1102l46 15M392 1163l-50-20M367 1123l25 9M348 1185l48 18M371 1231l29 12M346 1209c13.333 4.33 41.8 14.4 49 20M363 1199l26 11M408 1253v15M219 824c9.333 21 29.8 69 37 93M265 926l101 36-21-68c-25-17-83.4-54-117-66M247 854l55 26M310 886l16 6M258 881l67 28M345 932l-37-13M286 914l-18-6M88 790c15 26.667 47.2 87 56 115 36 6 69 12 83 14M88 788c14.333 1 54.4 7.2 100 24" stroke="#BABABA" stroke-width="6"/><path d="M197 826l14 44c-6.667-2.667-27.2-8-56-8M123 821l28 6M164 828l18 5M145 877l43 7M216 889l7 15M153 891c11 .667 37 3 53 7M187 931c39.667 4.667 132.4 21.4 186 51M380 998l9 68M172 932h-20l35 77M198 1019c41.333 6.67 134.4 25.6 176 48M203 1001c42.333 9 135.8 31.2 171 48M168 945c33 3.333 104.2 12.2 125 21M276 976c3.333.333 12.2 1.8 21 5M176 959l33 5M247 991c16.667 3.333 52.6 11.2 63 16M185 982c7 .667 23.4 2.6 33 5M207 973c11 0 35.6 1.2 46 6M314 966l9 41c13.667 4 42.8 13 50 17M736 798c-2.333 17.333-3.2 64.2 12 113M745 784l32-7M784 781c-4.667 18-11.2 68 0 124M740 805l29-7M745 883l26-5M740 848l14-5M747 825l20-6M754 891l17-5M751 919l27-8M420 899c7 21.333 22.8 72.6 30 107 18.4 0 28.333-4 31-6M421 888l28-13M460 876c4.667 6.667 18.6 37.6 37 108M428 905l13-6M467 969l-21 11M456 954l24-11M438 920l26-11M450 930l13-6M462 1030c70-10 212.2-49.4 301-87M456 1043c4.667 17.33 13.6 59 12 87 24.8 4.8 49.667 2 59 0M541 1125c40-9.67 124.6-30.8 143-38M488 1048l45-8M567 1039c48-12.67 154.4-44.2 196-69M490 1069l49-10M763 1009c-55.667 19.67-180.8 61.2-236 70M482 1101c6.667 1 23.4 1.4 37-5M572 1084c24.333-3.33 77-12.8 93-24M500 1113c28.667-5 94.6-17.6 129-28M785 960c2.667 19 8.4 60.6 10 75M658 1142c2.667 26.33 10.4 85.4 20 111M795 1242c-21.667-1-73.6-.2-108 11M689 1212c18-1.67 59.2-5 80-5M687 1174h30M702 1230l97-7M695 1190h37M473 1175c5 22 15 74 15 106M527 1276l-30 5M484 1163c30.667-6.67 96.8-20 116-20M612 1144l26 121c-23.667 1-77 4.4-101 10M501 1180l69-10M504 1228l79-15M530 1190l78-11M503 1257l44-8M542 1237l76-13M586 1193l22-5M557 1253l59-9" stroke="#BABABA" stroke-width="6"/><path d="M647.828 874.5c-5.782-17.793-12.075-34.521-16.328-45 1.667-.833 8-3.1 20-5.5 37.5-5.5 28.5 32 24.5 37.5-3.2 4.4-20.115 10.5-28.172 13zm0 0c5.557-2.333 18.672-6.8 26.672-6 29.2 12 29.833 39.333 26.5 51.5-4 5-19.2 9.4-38 15-1.291.385-1.355-1.89-1.657-4-2.176-15.216-7.449-37.83-13.515-56.5zM613 836l-28.5 7.5c2.763 13.144 10.634 33.401 14.5 52.5m40.5 46.5c-3.833 1.333-15.5 6.5-26.5 6-2.5 0-4-1-4.5-3.215-1.313-9.893-5.348-28.77-9.5-49.285m0 0c4.09-.167 13.8-2.3 21-5.5M505.861 869.132c6.083 23.943 20.746 77.774 30.732 101.552 2.323 4.441 5.318.926 6.526-1.387l-.189-46.51c.748-4.654 3.201-11.446 7.025-1.378 4.782 12.586 6.511 28.118 15.8 40.282 2.744 3.249 10.874-1.539 11.745-3.691.656-18.491-10.399-64.853-18.5-105" stroke="#3E241A" stroke-width="8"/><path d="M857 1177c59.2-70 7.333-135.83-26-160 1.167 9.83 3.5 33 3.5 47-22.5-13.5-92.5-22.5-126.5-17.5s-37 30.5-4.5 31 51 2 78 15.5c-30.4 12-80 14.67-101 14.5-27.935 8.48-8.59 21.94 2.92 29.94l.08.06c-14 15 6.5 24 20 31 27 50.5 142.5 19.5 153.5 8.5z" fill="#FFE1C4"/><path d="M143.5 1049.5c-28.5-26-4.167-42.67 12-48l8.5 19.5c12 5.2 42.667 15.17 56.5 19.5 21 11.5 12.5 25.5 0 28.5 10.5 14.5 4.5 16-7.5 24 11 14 7.5 16 0 24.5 16 9 10.5 19.5-3 27-10.8 6-31.833 6.17-41 5.5-27.5-7-25.5-18.5-20-29-28-9.6-19.667-28-12-36-18.5-25-8.5-21.5 6.5-35.5z" fill="#FFE1C3"/><path d="M505.889 349.161c-15.754-48.277-80.292-30.999-97.061-19.311-22.766 27.645 0 36.368 10.163 39.13 70.331 19.107 91.707-5.082 86.898-19.819z" fill="#fff"/><path d="M478.5 357c-25.2-23.2-45.5-5-45.5 13.5 24.5 10.5 35 6 45.5 2-6.5-5.5-6.5-9.5 0-15.5z" fill="#3E241A"/><path d="M680.7 340.522c-24.901-45.227-115.863-38.113-122.978 14.229-1.016 17.786 57.932 24.392 97.569 17.786 31.71-5.285 30.152-23.546 25.409-32.015z" fill="#fff"/><path d="M641 357c-28-28-51-6-51 13 15.6 11.2 39.833 5 51 1.5-7-3.5-6-10.5 0-14.5z" fill="#3E241A"/><path d="M650.718 259.214c-78.056.813-96.045 29.474-87.914 39.638 28.458-4.066 80.799-16.262 126.027 3.049-2.541-14.229-21.852-42.687-38.113-42.687zM497.25 291.23c-70.128-43.704-99.094-21.174-112.815 1.524v18.294c39.638-22.36 82.833-13.213 101.635-10.672 15.042 2.033 13.721-5.251 11.18-9.146z" fill="#CC9067"/><path d="M470.825 32.061c101.634-76.226 407.554-7.114 301.854 262.217-45.397-74.532-169.323-231.32-301.854-262.217z" fill="#363637"/><path d="M744.221 252.608c26.019-77.242 10.841-154.145 0-182.942 77.243 77.242 50.479 179.893 26.425 226.645l-13.212-12.196c-1.355-2.372-5.895-11.993-13.213-31.507z" fill="#2D2D2E" stroke="#2D2D2E" stroke-width="2"/><path d="M467.776 35.11c-300.838-10.163-191.073 129.076-105.7 195.139 97.569-177.86 265.266-89.439 333.361-31.507C650.718 126.581 536.886 37.445 467.776 35.11z" fill="#69BEE9"/><path d="M468.792 34.094c-261.81-13.822-171.423 110.782-93.504 174.811 88.626-143.101 251.037-71.144 325.231-6.098C664.947 140.81 529.773 34.094 468.792 34.094z" fill="#53A8DE"/><path d="M370.715 335.948l13.72 9.656c-1.016-7.454.61-39.231 3.049-106.717-6.606-83.848 99.602-112.814 140.764-112.814-92.995-37.605-97.569-13.212-72.16-5.082-77.751-19.818-72.669 19.311-53.867 16.262-19.818 5.59-20.496 9.655-23.884 14.229 2.033.847 7.623 2.54 13.721 2.54-19.819 8.131-21.343 10.672-21.343 18.295-21.344 10.671-11.18 30.998 7.622 32.015-34.149 52.849-18.972 54.882-7.114 49.292-30.491 46.244-10.672 54.883-.508 56.407v25.917z" fill="#CB8F66"/><path d="M707.633 233.297c-5.691-4.878-16.6-30.49-21.343-42.686 44.211 15.245 85.373 102.142 94.012 113.83-4.574-2.54-7.623 13.721-4.066 24.393-8.13-4.066-8.639 3.049-8.639 11.18-12.602-7.725-26.933 1.185-31.506 6.098l-2.541 83.848-19.311-3.049c6.098-34.556 2.033-96.553 2.033-141.272-26.933-45.227-11.688-28.458-2.033-21.851-27.949-38.621-11.18-30.491-6.606-30.491z" fill="#CC9067"/><path fill-rule="evenodd" clip-rule="evenodd" d="M390.025 480.269c12.705 18.633 42.179 56.712 58.44 59.965l2.541-29.474c-16.939-14.229-23.238-50.309 87.914-50.309 121.453 0 102.651 38.112 99.602 42.686l-3.049 45.227c21.851-16.092 67.485-53.358 75.209-73.685 4.065-23.884 5.929-50.478 4.065-63.013 3.049 11.18 11.383 23.986 20.327-14.229-2.032 36.995-5.251 92.657-6.606 115.863-13.551 45.567-89.946 151.944-189.548 151.944-78.259-7.114-148.895-108.241-148.895-184.975zm91.98 16.77c41.67 7.114 69.314 4.878 112.814-2.033 9.757-2.032 13.89 4.574 14.229 9.656 0 22.359-9.147 55.39-32.015 20.326-30.999 7.623-44.719 8.131-74.702 3.049-8.13 12.705-23.283 21.852-28.457-6.606-3.049-16.769 1.694-22.19 8.131-24.392z" fill="#8E5C3E"/><path d="M361.059 231.265c-36.588-36.589-91.929-82.14-91.929-121.962 0-79.275 154.943-81.307 200.678-75.209m0 0c45.735 6.098 157.534 60.98 234.776 168.713M469.808 34.094C529.773-37.05 889.559-.462 773.695 297.327m-69.111-94.52c13.212 11.946 34.962 29.474 69.111 94.52m-69.111-94.52c-4.725-4.272-11.265-8.551-19.311-14.369m88.422 108.889l5.59 7.623M396.632 120.483c12.196-8.944 44.38-3.726 58.948 0-51.224-23.579 50.817-13.212 70.127 4.066 64.458 5.261 125.502 39.255 159.566 63.889M422.04 169.776c-30.49 6.606-78.767 34.047-43.703 34.047-21.364 23.376-32.523 75.21-3.049 43.703-11.18 14.907-29.881 46.854-15.245 55.391m0-122.469c7.453-5.59 31.1-15.246 57.932-17.278m-46.244 2.541c2.541-3.05 12.298-10.57 22.868-12.197m0 0c-8.944-.406-14.907-.169-16.77 0m16.77 0h-16.77m0 0c3.049-7.622 29.982-25.916 65.554-21.851m-38.621 19.819c2.711-1.525 15.55-4.269 45.228-3.049m2.54-15.754c3.727-.338 14.839-.101 29.474 3.558m.509-14.737c6.098 1.355 19.92 4.98 26.425 8.638M362.584 307.999s5.691-11.993 8.131-13.213m1.016 11.18l1.016 35.572m312.526-153.1c1.525 6.314 6.302 21.788 13.213 33.171 6.911 11.384 15.753 22.36 19.31 26.425m-21.851-12.196c3.727 6.607 12.704 21.445 18.802 27.95m-326.246-64.03c-1.981 18.131-4.318 50.602-5.329 91.979m5.329 181.926c9.655 24.9 40.145 55.391 61.489 66.571v-30.491c-18.803-10.671-16.77-45.735 87.913-49.801m-149.402 13.721c-.397-4.59-1.786-12.214-2.136-16.77m2.136 16.77c-1.319 42.992 12.409 89.227 48.415 128.059 11.761 12.685 17.664 21.327 33.45 36.402m67.537-178.182c93.942-3.648 117.388 28.458 100.11 42.687l-2.032 45.227c20.835-4.573 67.587-57.423 74.193-74.193 4.912-51.834 12.196-150.419 5.59-189.548-8.639-10.164-16.262-25.409-18.803-28.458M537.903 459.942c-41.466-1.741-47.746-12.221-55.899-25.916-9.532-16.015 11.548-41.757 20.951-66.063m-120.246-21.851c-7.216-6.098-26.731-8.23-26.731 33.031 0 51.325 19.31 77.75 30.387 77.75m-3.656-110.781c.251 35.045.57 70.658 3.656 110.781m-3.656-110.781c-.087-12.153-.044-21.838.102-33.031m384.786 27.949c-16.769-5.59-21.851-2.541-30.998 5.59.826 19.275-1.876 67.772-4.759 110.273m35.757-115.863c23.376 7.792 29.474 115.863-35.757 115.863m35.757-115.863v-7.114l6.607-5.082c1.863-2.541 2.439-11.688-10.164-27.95m-32.2 156.009a4670.224 4670.224 0 01-3.88 52.85c-2.136 21.988-17.286 51.585-43.044 79.8M399.172 341.03c9.147-23.376 82.832-42.178 107.733 3.557 1.015 7.359-.821 15.288-3.95 23.376m-97.176-3.557c19.31 9.655 64.339 18.192 97.176 3.557m0 0c-6.137 6.268-20.239 19.514-27.557 22.36m201.237-28.458c-14.399 9.486-57.424 23.274-114.339 2.541 7.622 6.606 8.13 10.163 23.884 19.819m-27.95-34.048c4.066-33.539 79.783-66.062 123.994-8.639M482.004 505.17c17.278 9.824 64.64 23.071 115.864-2.541m-127.043 99.093c2.202 9.575 8.537 32.358 16.261 46.886m0 0c6.01 3.557 12.708 6.8 20.327 9.625m-20.327-9.625c-4.992-2.954-12.543-7.158-16.72-10.484m27.9-5.403c.847 4.981 3.862 17.057 9.147 25.512m0 0c5.575 2.067 11.642 3.909 18.294 5.486 12.463 1.819 29.146 1.434 41.67-.735m33.54-43.476c-1.653 8.878-7.614 29.05-18.233 38.725m0 0a173.333 173.333 0 0015.184-5.606m-15.184 5.606c-6.409 2.024-8.813 3.627-15.307 4.751m68.604-61.262c-3.219 10.775-11.892 34.377-20.835 42.587m0 0a199.227 199.227 0 01-17.278 8.318m17.278-8.318c25.499-13.786 50.939-34.139 69.77-54.766m-72.819 40.637c-2.372 5.614-8.538 17.963-14.229 22.447m-21.852-11.267c-.169 3.914-2.032 13.212-8.639 21.624m-101.634-40.935c1.038 4.553.99 13.314 4.623 16.075m0 0l5 3.503-.124 6.981m209.674-59.065v51.104m0 0v52.104c4.416 2.25 7.584 7.557 10.084 16.249m-10.084-68.353c30.361 2.156 97.584 17.107 123.584 59.661M383.172 291.737c-.152 6.241-.274 14.717-.361 21.344m.361-21.344c2.911-5.084 5.739-7.648 10.41-11.506m-10.41 11.506c18.504-1.626 30.912 4.716 34.803 8.09m-35.164 13.254c13.843-6.457 25.309-10.65 35.164-13.254m-24.393-19.596c12.026 2.819 36.892 8.559 36.08 17.096m-36.08-17.096c5.83-4.814 13.028-8.635 21.344-10.888m-21.344 10.888l21.344-10.888m14.736 27.984c9.96-1.594 18.206-1.453 25.918-.614m-25.918.614c-3.647.584-7.523 1.4-11.687 2.5m-3.049-30.484c11.01 3.668 34.555 14.277 40.654 27.37m-40.654-27.37c7.459-2.022 15.819-2.781 24.9-1.865m15.754 29.235c6.752.735 11.062.989 17.786 2.097m-33.54-31.332c17.282 1.743 37.174 9.555 58.44 26.292 1.863 2.371 0 9.147-15.753 7.114-2.439-.314-6.832-1.693-9.147-2.074m-33.54-31.332c11.858 8.058 30.999 21.718 33.54 31.332m68.603-8.089c1.186 3.388 9.147 10.163 19.31 10.163m0 0c-2.457-17.428 13.751-27.962 33.032-34.216m-33.032 34.216c2.306 0 6.614-.865 12.389-2.074m20.643-32.142c-9.019 8.159-25.774 26.01-20.643 32.142m20.643-32.142c11.91-3.864 24.992-6.094 35.572-7.308m-56.215 39.45c5.647-1.183 12.695-2.695 20.643-4.05m35.572-35.4c11.245-1.29 19.661-1.43 20.835-1.162 2.875.657 5.779 1.872 8.639 3.499m-29.474-2.337c-10.333 6.201-31.914 21.963-35.572 35.4m0 0c5.547-.945 9.5-1.814 15.753-2.441m49.293-30.622c-11.18 2.27-36.081 13.271-49.293 30.622m49.293-30.622c4.893 2.784 9.655 6.774 13.912 11.238m-63.205 19.384c6.263-.628 12.957-1.013 19.819-.988m43.386-18.396c8.643 9.064 15.208 20.083 16.578 26.933.508 2.541-4.574 4.501-8.639 2.347-15.306-8.109-33.859-10.822-51.325-10.884m43.386-18.396c-9.719-.192-32.003 3.218-43.386 18.396M481.004 782c-24.796-31.2-19.504-63-6.638-83.692l.876-49.7M481.004 782C528 761 604 727 695 709m-213.996 73c-9.924 6.304-15.679 8.906-23.504 13.97M695 709c16.833-2.897 55.6-8.692 64-8.692L760.5 714m0 0C659 727 458 777.4 358 871m402.5-157c3.825-.247 9.723-.42 16-.501M799 744c1-13 2-16.5 4.5-30-4.535-.504-16.317-.638-27-.501M799 744c10.4-1.6 23.667-3.333 29-4 0 9.492 0 163.796 3.212 275M799 744c-76.569 8.667-271.967 46.2-441 127m73.916 452c-.001-44.88-3.585-154.47-17.916-233.82M431.916 1323C508.944 1305.67 699 1269.4 843 1263c0-29.5-4.5-54-5-78m-406.084 138C380.11 1296.83 263.4 1243.7 211 1240.5c-3.5-44.5-10.5-86.5-13.5-91.5M45 732c-4.333-1.667-17-3.5-32-5 45.169 58.169 90.799 148.504 118.402 210.5M45 732l-10-31.692C45.333 701.539 63.5 703 75 706m-30 26c71.667 13.667 234.6 62.2 313 139M75 706c0-23-16-53.093-18-57.392-1.437-3.088 110.153 34.59 205 112.413M75 706c63.337 9.667 209.408 60.2 283 165m0 0c10 20 34 83.8 50 179-4.8 15.2-7.333 25.67-8 29l14 10.18M358 871c-24.217-42.803-58.822-79.475-96-109.979M358 871c37.233-32.038 48.981-42.332 99.5-75.03M422 1095l-8-5.82m11 20.32c2.333 2.83 7.7 9.5 10.5 13.5m402.5 62c-46 10.5-111.5 26-137-17.5m137 17.5c4.667-1.5 15.2-5 20-7m-157-10.5c19 2.33 61 5.9 77-2.5m-77 2.5c-10.5-3.5-32.4-17.3-18-30.5m0 0c15.667 4.67 55.4 11.2 89 0m-89 0c-13-3.87-32.4-27.6 0-30 21 0 75.9-.1 97.5-14.5 0-6.5-31.2-14.6-78-15-14.5-.12-36.5-23.37 6-31 25-4.49 94.9.3 124.5 17.5-.686-14.74-1.277-31.33-1.788-49M197.5 1149c-21 3-70-.5-47-28.5m47 28.5c40-14.8 25.667-26.83 13.5-31m-13.5 31c-8.667 16.17-29 51.7-41 64.5C52 1300-22 1208 11.5 1127c26.8-64.8 91.101-153.333 119.902-189.5m19.098 183c-15-6-32.5-12.5-14-34.5m14 34.5c3 1.2 38.5 8 60.5-2.5m-74.5-32c-8.5-14.5-18-21.5 6.5-36m-6.5 36c16.5 8.5 46 13.5 74.5 6.5m-68-42.5c14.5 13 60 22.5 77 20m-77-20c-7.626-9.68-15.769-18.84-12.92-28.5m26.42-21.5l6.5 17.5h-6.5c12.5 6.5 42.1 20.2 60.5 23 23 3.5 20 27 3 29.5m-63.5-70c-3.047-10.265-12.062-33.222-25.098-62.5M156.5 1000c-16.947 7.65-24.412 14.7-26.42 21.5M220 1070c6.5 5.17 13.8 16.9-9 22.5m0 0c7.333 5 17.6 17.1 0 25.5m-80.92-96.5c-8.975 2.43-26.901 9.97-41.08 23.29m-11.5 13.71c3.254-5.11 7.205-9.68 11.5-13.71m0 0l-13-2.29m13 2.29l-2.5-9.79M262 761.021c23.086-19.052 82.706-58.267 136.5-62.713m0 0c14.5-24.308 33.485-44.739 76.742-49.7m-76.742 49.7c-5.333 19.211-1 65.638 59 97.662m351-95.662h-21l-11 13.191m32-13.191C843 700.308 944 740 1034 947c21.67 42 69 180 69 251 3.5 89.5-181.5 80.5-210 0m0 0c-11.333-4.17-34.2-14-35-20m35 20c5.5 1.67 17.9 4.7 23.5 3.5 1.8-2.7 4.086-6.21 6.525-10.5M858 1178c1.651-2.02 3.437-4.37 5.278-7m71.222-84.5c2.65-6.14 17.674-10.48 56.5 11.48m-56.5-11.48c1.286 4.54 2.331 8.96 3.161 13.27m-3.161-13.27c-15.692-6.72-25.521-10.1-39.5-11.17m-16-.33c1.375 3.37 2.477 8.77 3.336 12.17M879 1075c6.067-.13 11.271-.03 16 .33m-16-.33c-5.269-10.74-16.697-30.36-30-45.01M831.212 1015c6.049 3.36 12.09 8.72 17.788 14.99m167.5 84.01c-7.23-4.94-13.89-9.19-20-12.82m0 0c1.667-2.9 7.1-9.28 15.5-11.68m-15.5 11.68a254.926 254.926 0 00-5.5-3.2m0 0c1.167-4.33 4.4-13.58 8-15.98m-61.339 17.77c-10.996-4.82-37.456-12.47-55.325-12.6m55.325 12.6c.943 4.89 1.608 9.64 2.031 14.23m-57.356-26.83c2.299 9.1 2.847 19.14 2.174 27.83m55.182-1c-10.676-4.72-34.561-13.88-44.692-12.82m44.692 12.82c.461 5.02.634 9.85.564 14.5m0 0c-10.245-4.83-35.738-13.5-55.746-13.5m55.746 13.5c-.421 27.91-9.581 49.05-17.231 62.5m-38.515-76c-1.338 17.28-7.503 32.83-14.328 45m0 0c9.719 4.83 32.989 14.5 48.318 14.5m-48.318-14.5c-2.28 4.06-4.633 7.75-6.904 11m0 0c11.09 6 38.567 18.4 59.747 20M895 1075.33c-8.347-16.64-26.81-50.94-41.739-71.33m-6.761-8.5c2.129 2.402 4.401 5.28 6.761 8.5m0 0c-.087 6.33-1.061 20.39-4.261 25.99M502.955 531.595c13.005 2.879 45.823 5.894 73.061-5.082 10.164 23.884 27.442 22.868 33.54 0v-16.77c0-7.114-2.338-20.733-25.917-16.261-20.666 3.726-68.095 7.622-101.635 1.016-7.724-2.033-11.283 7.114-11.179 12.704.169 9.147 1.016 26.934 7.114 33.032 7.623 7.622 16.493 5.081 25.016-8.639z" stroke="#3E241A" stroke-width="6"/></svg>