<svg xmlns="http://www.w3.org/2000/svg" fill="none" viewBox="0 0 120 120" height="120" width="120">
<rect fill-opacity="0.1" fill="#C4C4C4" height="120" width="120"></rect>
<path fill="#F2F2F7" d="M104 105C104 110.523 83.4051 115 58 115C32.5949 115 12 110.523 12 105C12 99.4772 32.5949 95 58 95C83.4051 95 104 99.4772 104 105Z"></path>
<path fill="#63609D" d="M37.5 6C36.1193 6 35 7.11929 35 8.5C35 9.88071 36.1193 11 37.5 11C38.8807 11 40 9.88071 40 8.5C40 7.11929 38.8807 6 37.5 6ZM34 8.5C34 6.567 35.567 5 37.5 5C39.433 5 41 6.567 41 8.5C41 10.433 39.433 12 37.5 12C35.567 12 34 10.433 34 8.5Z" clip-rule="evenodd" fill-rule="evenodd"></path>
<path fill="#63609D" d="M100.5 47C99.6716 47 99 47.6716 99 48.5C99 49.3284 99.6716 50 100.5 50C101.328 50 102 49.3284 102 48.5C102 47.6716 101.328 47 100.5 47ZM98 48.5C98 47.1193 99.1193 46 100.5 46C101.881 46 103 47.1193 103 48.5C103 49.8807 101.881 51 100.5 51C99.1193 51 98 49.8807 98 48.5Z" clip-rule="evenodd" fill-rule="evenodd"></path>
<path fill="#CFD0FE" d="M20.5 22.5C20.5 20.2909 22.2909 18.5 24.5 18.5H88.5C90.7091 18.5 92.5 20.2909 92.5 22.5V102.5C92.5 104.709 90.7091 106.5 88.5 106.5H24.5C22.2909 106.5 20.5 104.709 20.5 102.5V22.5Z"></path>
<path fill="#63609D" d="M20 22.5C20 20.0147 22.0147 18 24.5 18H88.5C90.9853 18 93 20.0147 93 22.5V102.5C93 104.985 90.9853 107 88.5 107H24.5C22.0147 107 20 104.985 20 102.5V22.5ZM24.5 19C22.567 19 21 20.567 21 22.5V102.5C21 104.433 22.567 106 24.5 106H88.5C90.433 106 92 104.433 92 102.5V22.5C92 20.567 90.433 19 88.5 19H24.5Z" clip-rule="evenodd" fill-rule="evenodd"></path>
<path fill="#F3F3FD" d="M28.5 30.5C28.5 28.2909 30.2909 26.5 32.5 26.5H80.5C82.7091 26.5 84.5 28.2909 84.5 30.5V94.5C84.5 96.7091 82.7091 98.5 80.5 98.5H32.5C30.2909 98.5 28.5 96.7091 28.5 94.5V30.5Z"></path>
<path fill="#63609D" d="M28 30.5C28 28.0147 30.0147 26 32.5 26H80.5C82.9853 26 85 28.0147 85 30.5V94.5C85 96.9853 82.9853 99 80.5 99H32.5C30.0147 99 28 96.9853 28 94.5V30.5ZM32.5 27C30.567 27 29 28.567 29 30.5V94.5C29 96.433 30.567 98 32.5 98H80.5C82.433 98 84 96.433 84 94.5V30.5C84 28.567 82.433 27 80.5 27H32.5Z" clip-rule="evenodd" fill-rule="evenodd"></path>
<path fill="#FDD3FF" d="M50.5 14.5C50.5 11.1863 53.1863 8.5 56.5 8.5C59.8137 8.5 62.5 11.1863 62.5 14.5V16.5H75.5C77.1569 16.5 78.5 17.8431 78.5 19.5C78.5 21.1569 77.1569 22.5 75.5 22.5H56.5H37.5C35.8431 22.5 34.5 21.1569 34.5 19.5C34.5 17.8431 35.8431 16.5 37.5 16.5H50.5V14.5ZM56.5 16.5C57.8807 16.5 59 15.3807 59 14C59 12.6193 57.8807 11.5 56.5 11.5C55.1193 11.5 54 12.6193 54 14C54 15.3807 55.1193 16.5 56.5 16.5Z" clip-rule="evenodd" fill-rule="evenodd"></path>
<path fill="#63609D" d="M50 14.5C50 10.9101 52.9101 8 56.5 8C60.0899 8 63 10.9101 63 14.5V16H75.5C77.433 16 79 17.567 79 19.5C79 21.433 77.433 23 75.5 23H37.5C35.567 23 34 21.433 34 19.5C34 17.567 35.567 16 37.5 16H50V14.5ZM56.5 9C53.4624 9 51 11.4624 51 14.5V17H37.5C36.1193 17 35 18.1193 35 19.5C35 20.8807 36.1193 22 37.5 22H75.5C76.8807 22 78 20.8807 78 19.5C78 18.1193 76.8807 17 75.5 17H62V14.5C62 11.4624 59.5376 9 56.5 9ZM56.5 12C55.3954 12 54.5 12.8954 54.5 14C54.5 15.1046 55.3954 16 56.5 16C57.6046 16 58.5 15.1046 58.5 14C58.5 12.8954 57.6046 12 56.5 12ZM53.5 14C53.5 12.3431 54.8431 11 56.5 11C58.1569 11 59.5 12.3431 59.5 14C59.5 15.6569 58.1569 17 56.5 17C54.8431 17 53.5 15.6569 53.5 14Z" clip-rule="evenodd" fill-rule="evenodd"></path>
<path fill="#63609D" d="M38 45.5C38 45.2239 38.2239 45 38.5 45H44.5C44.7761 45 45 45.2239 45 45.5C45 45.7761 44.7761 46 44.5 46H38.5C38.2239 46 38 45.7761 38 45.5Z" clip-rule="evenodd" fill-rule="evenodd"></path>
<path fill="#63609D" d="M67 43.5C67 43.7761 67.2239 44 67.5 44H71.5C71.7761 44 72 43.7761 72 43.5C72 43.2239 71.7761 43 71.5 43H67.5C67.2239 43 67 43.2239 67 43.5Z" clip-rule="evenodd" fill-rule="evenodd"></path>
<path fill="#63609D" d="M9 35.5C9 35.7761 9.22386 36 9.5 36H15.5C15.7761 36 16 35.7761 16 35.5C16 35.2239 15.7761 35 15.5 35H9.5C9.22386 35 9 35.2239 9 35.5Z" clip-rule="evenodd" fill-rule="evenodd"></path>
<path fill="#63609D" d="M49 64.5C49 64.7761 49.2239 65 49.5 65H57.5C57.7761 65 58 64.7761 58 64.5C58 64.2239 57.7761 64 57.5 64H49.5C49.2239 64 49 64.2239 49 64.5Z" clip-rule="evenodd" fill-rule="evenodd"></path>
<path fill="#63609D" d="M96 17.5C96 17.7761 96.2239 18 96.5 18H100.5C100.776 18 101 17.7761 101 17.5C101 17.2239 100.776 17 100.5 17H96.5C96.2239 17 96 17.2239 96 17.5Z" clip-rule="evenodd" fill-rule="evenodd"></path>
<path fill="#63609D" d="M41.5 42C41.7761 42 42 42.2239 42 42.5V48.5C42 48.7761 41.7761 49 41.5 49C41.2239 49 41 48.7761 41 48.5V42.5C41 42.2239 41.2239 42 41.5 42Z" clip-rule="evenodd" fill-rule="evenodd"></path>
<path fill="#63609D" d="M69.5 46C69.7761 46 70 45.7761 70 45.5V41.5C70 41.2239 69.7761 41 69.5 41C69.2239 41 69 41.2239 69 41.5V45.5C69 45.7761 69.2239 46 69.5 46Z" clip-rule="evenodd" fill-rule="evenodd"></path>
<path fill="#63609D" d="M12.5 39C12.7761 39 13 38.7761 13 38.5V32.5C13 32.2239 12.7761 32 12.5 32C12.2239 32 12 32.2239 12 32.5V38.5C12 38.7761 12.2239 39 12.5 39Z" clip-rule="evenodd" fill-rule="evenodd"></path>
<path fill="#63609D" d="M53.5 69C53.7761 69 54 68.7761 54 68.5V60.5C54 60.2239 53.7761 60 53.5 60C53.2239 60 53 60.2239 53 60.5V68.5C53 68.7761 53.2239 69 53.5 69Z" clip-rule="evenodd" fill-rule="evenodd"></path>
<path fill="#63609D" d="M98.5 20C98.7761 20 99 19.7761 99 19.5V15.5C99 15.2239 98.7761 15 98.5 15C98.2239 15 98 15.2239 98 15.5V19.5C98 19.7761 98.2239 20 98.5 20Z" clip-rule="evenodd" fill-rule="evenodd"></path>
<path fill="#FBD4FA" d="M79.4422 62.0464C81.3886 58.6061 85.8581 54.8049 89.9606 54.5008C90.1913 54.4837 90.3351 54.7326 90.219 54.9326C87.7244 59.2276 87.7025 59.2905 87.0361 61.2571C89.7921 59.9014 95.3041 58.5459 95.3041 59.9014C95.3041 60.5188 94.0176 61.4459 92.5515 62.3366C101.805 65.265 108.5 73.8019 108.5 83.8769C108.5 96.3715 98.2025 106.5 85.5 106.5C72.7975 106.5 62.5 96.3715 62.5 83.8769C62.5 73.4446 69.6787 64.6616 79.4422 62.0464Z" clip-rule="evenodd" fill-rule="evenodd"></path>
<path fill="white" d="M81.7573 79.9942C81.7573 83.6614 78.8988 86.6343 75.3727 86.6343C71.8465 86.6343 68.988 83.6614 68.988 79.9942C68.988 76.327 71.8465 73.3542 75.3727 73.3542C78.8988 73.3542 81.7573 76.327 81.7573 79.9942Z"></path>
<path fill="white" d="M100.098 79.9942C100.098 83.6614 97.2392 86.6343 93.713 86.6343C90.1869 86.6343 87.3284 83.6614 87.3284 79.9942C87.3284 76.327 90.1869 73.3542 93.713 73.3542C97.2392 73.3542 100.098 76.327 100.098 79.9942Z"></path>
<path fill="black" d="M79.9695 79.9916C79.9695 82.6715 77.9114 84.8439 75.3725 84.8439C72.8337 84.8439 70.7756 82.6715 70.7756 79.9916C70.7756 77.3117 72.8337 75.1393 75.3725 75.1393C77.9114 75.1393 79.9695 77.3117 79.9695 79.9916Z"></path>
<path fill="black" d="M98.3098 79.9916C98.3098 82.6715 96.2517 84.8439 93.7129 84.8439C91.174 84.8439 89.1159 82.6715 89.1159 79.9916C89.1159 77.3117 91.174 75.1393 93.7129 75.1393C96.2517 75.1393 98.3098 77.3117 98.3098 79.9916Z"></path>
<path fill="white" d="M74.8618 78.4546C74.8618 79.583 73.947 80.4977 72.8187 80.4977C71.6903 80.4977 70.7756 79.583 70.7756 78.4546C70.7756 77.3262 71.6903 76.4115 72.8187 76.4115C73.947 76.4115 74.8618 77.3262 74.8618 78.4546Z"></path>
<path fill="white" d="M93.2021 78.4546C93.2021 79.583 92.2874 80.4977 91.159 80.4977C90.0306 80.4977 89.1159 79.583 89.1159 78.4546C89.1159 77.3262 90.0306 76.4115 91.159 76.4115C92.2874 76.4115 93.2021 77.3262 93.2021 78.4546Z"></path>
<path fill="white" d="M78.9481 82.0289C78.9481 82.5931 78.4907 83.0504 77.9265 83.0504C77.3623 83.0504 76.905 82.5931 76.905 82.0289C76.905 81.4647 77.3623 81.0074 77.9265 81.0074C78.4907 81.0074 78.9481 81.4647 78.9481 82.0289Z"></path>
<path fill="white" d="M97.2884 82.0289C97.2884 82.5931 96.831 83.0504 96.2668 83.0504C95.7027 83.0504 95.2453 82.5931 95.2453 82.0289C95.2453 81.4647 95.7027 81.0074 96.2668 81.0074C96.831 81.0074 97.2884 81.4647 97.2884 82.0289Z"></path>
<path fill="#2F3076" d="M76.7784 70.6727C76.7784 71.6943 75.7568 71.822 74.3522 71.9495C72.9476 72.0771 71.6706 71.5666 71.6707 71.1834C71.6707 70.8002 72.6922 70.0342 74.0968 69.7789C75.5015 69.5236 76.7784 69.651 76.7784 70.6727Z"></path>
<path fill="#2F3076" d="M92.9963 70.5247C92.9963 71.5464 94.0179 71.674 95.4225 71.8016C96.8271 71.9291 98.1041 71.4187 98.1041 71.0354C98.1041 70.6522 97.0825 69.8863 95.6779 69.6309C94.2733 69.3756 92.9963 69.5031 92.9963 70.5247Z"></path>
<path fill="#FFA2FE" d="M69.6023 87.3869C69.1125 87.6318 69 87.8776 69 88.0004C69 88.1232 69.1125 88.3689 69.6023 88.6138C70.0621 88.8437 70.7324 89.0004 71.5 89.0004C72.2676 89.0004 72.9379 88.8437 73.3977 88.6138C73.8875 88.3689 74 88.1232 74 88.0004C74 87.8776 73.8875 87.6318 73.3977 87.3869C72.9379 87.157 72.2676 87.0004 71.5 87.0004C70.7324 87.0004 70.0621 87.157 69.6023 87.3869ZM69.1551 86.4925C69.781 86.1795 70.6108 86.0004 71.5 86.0004C72.3892 86.0004 73.219 86.1795 73.8449 86.4925C74.441 86.7905 75 87.2947 75 88.0004C75 88.706 74.441 89.2102 73.8449 89.5082C73.219 89.8212 72.3892 90.0004 71.5 90.0004C70.6108 90.0004 69.781 89.8212 69.1551 89.5082C68.559 89.2102 68 88.706 68 88.0004C68 87.2947 68.559 86.7905 69.1551 86.4925Z" clip-rule="evenodd" fill-rule="evenodd"></path>
<path fill="#FFA2FE" d="M97.6023 87.3869C97.1125 87.6318 97 87.8776 97 88.0004C97 88.1232 97.1125 88.3689 97.6023 88.6138C98.0621 88.8437 98.7324 89.0004 99.5 89.0004C100.268 89.0004 100.938 88.8437 101.398 88.6138C101.887 88.3689 102 88.1232 102 88.0004C102 87.8776 101.887 87.6318 101.398 87.3869C100.938 87.157 100.268 87.0004 99.5 87.0004C98.7324 87.0004 98.0621 87.157 97.6023 87.3869ZM97.1551 86.4925C97.781 86.1795 98.6108 86.0004 99.5 86.0004C100.389 86.0004 101.219 86.1795 101.845 86.4925C102.441 86.7905 103 87.2947 103 88.0004C103 88.706 102.441 89.2102 101.845 89.5082C101.219 89.8212 100.389 90.0004 99.5 90.0004C98.6108 90.0004 97.781 89.8212 97.1551 89.5082C96.559 89.2102 96 88.706 96 88.0004C96 87.2947 96.559 86.7905 97.1551 86.4925Z" clip-rule="evenodd" fill-rule="evenodd"></path>
<path fill="#FFE9FE" d="M98.4985 102.544C94.8006 105.04 90.3237 106.5 85.5 106.5C80.6762 106.5 76.1993 105.04 72.5015 102.544C75.6199 98.8478 80.2858 96.5004 85.5 96.5004C90.7141 96.5004 95.38 98.8478 98.4985 102.544Z" clip-rule="evenodd" fill-rule="evenodd"></path>
<path fill="#2F3076" d="M89.9237 54.0022C90.5916 53.9527 90.9509 54.6679 90.6513 55.1837C89.4001 57.338 88.7808 58.411 88.3889 59.1922C88.1765 59.6156 88.0318 59.9511 87.8885 60.3331C89.1859 59.8104 90.7505 59.3388 92.1071 59.0719C92.9821 58.8998 93.8099 58.8046 94.4375 58.8521C94.7462 58.8755 95.06 58.9366 95.3116 59.0817C95.5914 59.243 95.8041 59.5199 95.8041 59.9014C95.8041 60.22 95.6444 60.5024 95.4773 60.7208C95.3019 60.9503 95.0638 61.1791 94.7975 61.4008C94.4838 61.6619 94.108 61.9318 93.7017 62.201C102.632 65.4739 109 73.9399 109 83.8769C109 96.6554 98.4709 107 85.5 107C72.5291 107 62 96.6554 62 83.8769C62 73.2794 69.2428 64.3551 79.1121 61.6182C80.13 59.8882 81.7349 58.1041 83.5911 56.6989C85.5083 55.2474 87.742 54.1639 89.9237 54.0022ZM89.5764 55.0435C87.7793 55.285 85.8912 56.2117 84.1947 57.4962C82.3691 58.8783 80.8132 60.6386 79.8774 62.2926C79.8113 62.4094 79.7012 62.4947 79.5716 62.5294C70.0162 65.0888 63 73.6816 63 83.8769C63 96.0876 73.0658 106 85.5 106C97.9342 106 108 96.0876 108 83.8769C108 74.0307 101.456 65.6793 92.4006 62.8133C92.2136 62.7541 92.0785 62.591 92.0551 62.3963C92.0317 62.2015 92.1243 62.0111 92.2919 61.9093C93.0195 61.4672 93.6821 61.0282 94.1577 60.6322C94.3963 60.4336 94.5715 60.2592 94.683 60.1133C94.7475 60.029 94.7777 59.9712 94.7917 59.9373C94.723 59.9044 94.5883 59.8664 94.3621 59.8493C93.8701 59.8121 93.1476 59.8864 92.3001 60.0531C90.6147 60.3847 88.5903 61.0498 87.2568 61.7058C87.0755 61.795 86.8583 61.7663 86.7064 61.633C86.5545 61.4997 86.4977 61.2881 86.5626 61.0967L86.5652 61.0889C86.8969 60.11 87.0786 59.574 87.4951 58.7438C87.8806 57.9755 88.4699 56.9495 89.5764 55.0435ZM94.8041 59.9014C94.8041 59.9021 94.8041 59.9007 94.8041 59.9014C94.8041 59.9013 94.8041 59.9012 94.8041 59.9014Z" clip-rule="evenodd" fill-rule="evenodd"></path>
<path fill="#FBD4FA" d="M67.8739 88.5646C69.3538 85.1026 65.4074 80.6514 62.4476 81.6405C59.4879 82.6297 60.3872 90.2662 61.9543 93.0158C63.9275 96.4779 67.3806 96.4779 66.8873 92.0267C67.8739 92.0267 69.3538 90.5429 67.8739 88.5646Z"></path>
<path fill="#28336B" d="M66.4398 83.7513C65.3261 82.3997 63.799 81.7161 62.6061 82.1147C62.076 82.2919 61.6573 82.7845 61.3746 83.6105C61.0934 84.4319 60.9786 85.5004 61.0033 86.6573C61.0529 88.9823 61.6596 91.489 62.3887 92.7683C62.8523 93.5817 63.3915 94.171 63.9145 94.5388C64.4422 94.9098 64.9219 95.0353 65.2872 94.9922C65.6284 94.9519 65.9375 94.7583 66.1547 94.3228C66.3815 93.8679 66.5077 93.1404 66.3904 92.0818L66.3288 91.5267H66.8873C67.1643 91.5267 67.6218 91.2883 67.8581 90.8144C68.069 90.3916 68.119 89.727 67.4735 88.8641L67.3008 88.6332L67.4142 88.3681C68.0558 86.867 67.539 85.0854 66.4398 83.7513ZM68.4369 88.4968C69.1068 86.6069 68.3999 84.5576 67.2115 83.1154C65.982 81.6232 64.0561 80.5758 62.2892 81.1663C61.3394 81.4837 60.7605 82.3166 60.4285 83.2866C60.0948 84.2612 59.9775 85.4591 60.0035 86.6787C60.0553 89.1067 60.6819 91.7931 61.5199 93.2634C62.0429 94.181 62.6753 94.8899 63.3393 95.3568C63.9986 95.8204 64.7213 96.0659 65.4043 95.9853C66.1114 95.9019 66.6964 95.4773 67.0496 94.7691C67.3462 94.1742 67.4766 93.3908 67.4233 92.4366C67.9592 92.2595 68.4675 91.8331 68.753 91.2607C69.1306 90.5035 69.1134 89.5275 68.4369 88.4968Z" clip-rule="evenodd" fill-rule="evenodd"></path>
<path fill="#FBD4FA" d="M103.126 88.5646C101.646 85.1026 105.593 80.6514 108.552 81.6405C111.512 82.6297 110.613 90.2662 109.046 93.0158C107.073 96.4779 103.619 96.4779 104.113 92.0267C103.126 92.0267 101.646 90.5429 103.126 88.5646Z"></path>
<path fill="#28336B" d="M104.56 83.7513C105.674 82.3997 107.201 81.7161 108.394 82.1147C108.924 82.2919 109.343 82.7845 109.625 83.6105C109.907 84.4319 110.021 85.5004 109.997 86.6573C109.947 88.9823 109.34 91.489 108.611 92.7683C108.148 93.5817 107.609 94.171 107.086 94.5388C106.558 94.9098 106.078 95.0353 105.713 94.9922C105.372 94.9519 105.063 94.7583 104.845 94.3228C104.618 93.8679 104.492 93.1404 104.61 92.0818L104.671 91.5267H104.113C103.836 91.5267 103.378 91.2883 103.142 90.8144C102.931 90.3916 102.881 89.727 103.526 88.8641L103.699 88.6332L103.586 88.3681C102.944 86.867 103.461 85.0854 104.56 83.7513ZM102.563 88.4968C101.893 86.6069 102.6 84.5576 103.788 83.1154C105.018 81.6232 106.944 80.5758 108.711 81.1663C109.661 81.4837 110.239 82.3166 110.572 83.2866C110.905 84.2612 111.023 85.4591 110.997 86.6787C110.945 89.1067 110.318 91.7931 109.48 93.2634C108.957 94.181 108.325 94.8899 107.661 95.3568C107.001 95.8204 106.279 96.0659 105.596 95.9853C104.889 95.9019 104.304 95.4773 103.95 94.7691C103.654 94.1742 103.523 93.3908 103.577 92.4366C103.041 92.2595 102.532 91.8331 102.247 91.2607C101.869 90.5035 101.887 89.5275 102.563 88.4968Z" clip-rule="evenodd" fill-rule="evenodd"></path>
<path fill="#FEE46B" d="M88.4043 88.788C87.9259 90.5414 85.8924 93.5004 84.457 93.5004C83.0217 93.5004 80.6294 90.2127 80.5098 88.4592C80.3902 86.7057 81.347 85.5003 84.457 85.5004C87.567 85.5004 88.8828 87.0347 88.4043 88.788Z"></path>
<path fill="#2F3076" d="M81.596 86.7034C81.1427 87.0882 80.9556 87.6481 81.0086 88.4252C81.0325 88.7746 81.1759 89.2439 81.4268 89.7721C81.6742 90.293 82.0107 90.8389 82.3879 91.3345C82.7663 91.8316 83.1746 92.2635 83.5601 92.5658C83.9624 92.8812 84.2695 93.0004 84.4571 93.0004C84.6544 93.0004 84.9429 92.892 85.309 92.6129C85.6641 92.3423 86.0381 91.9524 86.3952 91.4943C87.1142 90.5721 87.7047 89.4527 87.922 88.6564C88.1159 87.9455 87.9474 87.3215 87.4386 86.8554C86.9068 86.3681 85.9421 86.0004 84.457 86.0004C82.9483 86.0003 82.0756 86.2961 81.596 86.7034ZM80.9487 85.9411C81.6951 85.3073 82.8558 85.0003 84.4571 85.0004C86.082 85.0004 87.3302 85.3998 88.1141 86.118C88.9211 86.8574 89.1712 87.8772 88.8867 88.9197C88.6255 89.8767 87.9601 91.1135 87.1839 92.1091C86.7934 92.6099 86.36 93.0693 85.9151 93.4083C85.4813 93.7389 84.9774 94.0004 84.4571 94.0004C83.927 94.0004 83.3968 93.7085 82.943 93.3527C82.4726 92.9838 82.0062 92.4842 81.5922 91.9402C81.177 91.3947 80.8032 90.7899 80.5235 90.2012C80.2474 89.6198 80.0469 89.0206 80.011 88.4932C79.9444 87.5169 80.1759 86.5973 80.9487 85.9411Z" clip-rule="evenodd" fill-rule="evenodd"></path>
<path fill="#D0F1F6" d="M17.75 88.5311C18.7165 86.8571 20.8571 86.2835 22.5311 87.25C24.2051 88.2165 24.7787 90.3571 23.8122 92.0311L17.8122 102.423C16.8457 104.097 14.7051 104.671 13.0311 103.704C11.3571 102.738 10.7835 100.597 11.75 98.9234L17.75 88.5311Z"></path>
<path fill="#63609D" d="M17.1438 88.1811C18.3036 86.1722 20.8723 85.484 22.8811 86.6438C24.8899 87.8036 25.5782 90.3722 24.4184 92.3811L18.4184 102.773C17.2586 104.782 14.6899 105.47 12.6811 104.311C10.6723 103.151 9.98398 100.582 11.1438 98.5734L17.1438 88.1811ZM22.1811 87.8562C20.8419 87.083 19.1294 87.5418 18.3562 88.8811L12.3562 99.2734C11.583 100.613 12.0419 102.325 13.3811 103.098C14.7203 103.871 16.4328 103.413 17.206 102.073L23.206 91.6811C23.9792 90.3418 23.5203 88.6294 22.1811 87.8562Z" clip-rule="evenodd" fill-rule="evenodd"></path>
<path fill="#D0F1F6" d="M39.5 77.5C39.5 83.5751 34.5751 88.5 28.5 88.5C22.4249 88.5 17.5 83.5751 17.5 77.5C17.5 71.4249 22.4249 66.5 28.5 66.5C34.5751 66.5 39.5 71.4249 39.5 77.5Z" opacity="0.6"></path>
<path fill="#63609D" d="M28.5 67.2C22.8115 67.2 18.2 71.8115 18.2 77.5C18.2 83.1885 22.8115 87.8 28.5 87.8C34.1885 87.8 38.8 83.1885 38.8 77.5C38.8 71.8115 34.1885 67.2 28.5 67.2ZM16.8 77.5C16.8 71.0383 22.0383 65.8 28.5 65.8C34.9617 65.8 40.2 71.0383 40.2 77.5C40.2 83.9617 34.9617 89.2 28.5 89.2C22.0383 89.2 16.8 83.9617 16.8 77.5Z" clip-rule="evenodd" fill-rule="evenodd" opacity="0.6"></path>
<path fill="#D0F1F6" d="M28.5 93.5C37.3366 93.5 44.5 86.3366 44.5 77.5C44.5 68.6634 37.3366 61.5 28.5 61.5C19.6634 61.5 12.5 68.6634 12.5 77.5C12.5 86.3366 19.6634 93.5 28.5 93.5ZM28.5 88.5C34.5751 88.5 39.5 83.5751 39.5 77.5C39.5 71.4249 34.5751 66.5 28.5 66.5C22.4249 66.5 17.5 71.4249 17.5 77.5C17.5 83.5751 22.4249 88.5 28.5 88.5Z" clip-rule="evenodd" fill-rule="evenodd"></path>
<path fill="#63609D" d="M28.5 62.2C20.05 62.2 13.2 69.05 13.2 77.5C13.2 85.9499 20.05 92.8 28.5 92.8C36.9499 92.8 43.8 85.9499 43.8 77.5C43.8 69.05 36.9499 62.2 28.5 62.2ZM11.8 77.5C11.8 68.2768 19.2768 60.8 28.5 60.8C37.7231 60.8 45.2 68.2768 45.2 77.5C45.2 86.7231 37.7231 94.2 28.5 94.2C19.2768 94.2 11.8 86.7231 11.8 77.5ZM28.5 67.2C22.8115 67.2 18.2 71.8115 18.2 77.5C18.2 83.1885 22.8115 87.8 28.5 87.8C34.1885 87.8 38.8 83.1885 38.8 77.5C38.8 71.8115 34.1885 67.2 28.5 67.2ZM16.8 77.5C16.8 71.0383 22.0383 65.8 28.5 65.8C34.9617 65.8 40.2 71.0383 40.2 77.5C40.2 83.9617 34.9617 89.2 28.5 89.2C22.0383 89.2 16.8 83.9617 16.8 77.5Z" clip-rule="evenodd" fill-rule="evenodd"></path>
</svg>
