<svg xmlns="http://www.w3.org/2000/svg" fill="none" viewBox="0 0 111 109" height="109" width="111">
<path fill="#F2F2F7" d="M99 99C99 104.523 78.4051 109 53 109C27.5949 109 7 104.523 7 99C7 93.4772 27.5949 89 53 89C78.4051 89 99 93.4772 99 99Z"></path>
<path fill="#63609D" d="M14 4.5C12.6193 4.5 11.5 5.61929 11.5 7C11.5 8.38071 12.6193 9.5 14 9.5C15.3807 9.5 16.5 8.38071 16.5 7C16.5 5.61929 15.3807 4.5 14 4.5ZM10.5 7C10.5 5.067 12.067 3.5 14 3.5C15.933 3.5 17.5 5.067 17.5 7C17.5 8.933 15.933 10.5 14 10.5C12.067 10.5 10.5 8.933 10.5 7Z" clip-rule="evenodd" fill-rule="evenodd"></path>
<path fill="#63609D" d="M99 64.5C98.1716 64.5 97.5 65.1716 97.5 66C97.5 66.8284 98.1716 67.5 99 67.5C99.8284 67.5 100.5 66.8284 100.5 66C100.5 65.1716 99.8284 64.5 99 64.5ZM96.5 66C96.5 64.6193 97.6193 63.5 99 63.5C100.381 63.5 101.5 64.6193 101.5 66C101.5 67.3807 100.381 68.5 99 68.5C97.6193 68.5 96.5 67.3807 96.5 66Z" clip-rule="evenodd" fill-rule="evenodd"></path>
<path fill="#CFD0FE" d="M20 15C20 12.7909 21.7909 11 24 11H88C90.2091 11 92 12.7909 92 15V95C92 97.2091 90.2091 99 88 99H24C21.7909 99 20 97.2091 20 95V15Z"></path>
<path fill="#63609D" d="M19.5 15C19.5 12.5147 21.5147 10.5 24 10.5H88C90.4853 10.5 92.5 12.5147 92.5 15V95C92.5 97.4853 90.4853 99.5 88 99.5H24C21.5147 99.5 19.5 97.4853 19.5 95V15ZM24 11.5C22.067 11.5 20.5 13.067 20.5 15V95C20.5 96.933 22.067 98.5 24 98.5H88C89.933 98.5 91.5 96.933 91.5 95V15C91.5 13.067 89.933 11.5 88 11.5H24Z" clip-rule="evenodd" fill-rule="evenodd"></path>
<path fill="#F3F3FD" d="M28 23C28 20.7909 29.7909 19 32 19H80C82.2091 19 84 20.7909 84 23V87C84 89.2091 82.2091 91 80 91H32C29.7909 91 28 89.2091 28 87V23Z"></path>
<path fill="#63609D" d="M27.5 23C27.5 20.5147 29.5147 18.5 32 18.5H80C82.4853 18.5 84.5 20.5147 84.5 23V87C84.5 89.4853 82.4853 91.5 80 91.5H32C29.5147 91.5 27.5 89.4853 27.5 87V23ZM32 19.5C30.067 19.5 28.5 21.067 28.5 23V87C28.5 88.933 30.067 90.5 32 90.5H80C81.933 90.5 83.5 88.933 83.5 87V23C83.5 21.067 81.933 19.5 80 19.5H32Z" clip-rule="evenodd" fill-rule="evenodd"></path>
<path fill="#FDD3FF" d="M50 7C50 3.68629 52.6863 1 56 1C59.3137 1 62 3.68629 62 7V9H75C76.6569 9 78 10.3431 78 12C78 13.6569 76.6569 15 75 15H56H37C35.3431 15 34 13.6569 34 12C34 10.3431 35.3431 9 37 9H50V7ZM56 9C57.3807 9 58.5 7.88071 58.5 6.5C58.5 5.11929 57.3807 4 56 4C54.6193 4 53.5 5.11929 53.5 6.5C53.5 7.88071 54.6193 9 56 9Z" clip-rule="evenodd" fill-rule="evenodd"></path>
<path fill="#63609D" d="M49.5 7C49.5 3.41015 52.4101 0.5 56 0.5C59.5899 0.5 62.5 3.41015 62.5 7V8.5H75C76.933 8.5 78.5 10.067 78.5 12C78.5 13.933 76.933 15.5 75 15.5H37C35.067 15.5 33.5 13.933 33.5 12C33.5 10.067 35.067 8.5 37 8.5H49.5V7ZM56 1.5C52.9624 1.5 50.5 3.96243 50.5 7V9.5H37C35.6193 9.5 34.5 10.6193 34.5 12C34.5 13.3807 35.6193 14.5 37 14.5H75C76.3807 14.5 77.5 13.3807 77.5 12C77.5 10.6193 76.3807 9.5 75 9.5H61.5V7C61.5 3.96243 59.0376 1.5 56 1.5ZM56 4.5C54.8954 4.5 54 5.39543 54 6.5C54 7.60457 54.8954 8.5 56 8.5C57.1046 8.5 58 7.60457 58 6.5C58 5.39543 57.1046 4.5 56 4.5ZM53 6.5C53 4.84315 54.3431 3.5 56 3.5C57.6569 3.5 59 4.84315 59 6.5C59 8.15685 57.6569 9.5 56 9.5C54.3431 9.5 53 8.15685 53 6.5Z" clip-rule="evenodd" fill-rule="evenodd"></path>
<path fill="#63609D" d="M45.5 31C45.5 30.7239 45.7239 30.5 46 30.5H52C52.2761 30.5 52.5 30.7239 52.5 31C52.5 31.2761 52.2761 31.5 52 31.5H46C45.7239 31.5 45.5 31.2761 45.5 31Z" clip-rule="evenodd" fill-rule="evenodd"></path>
<path fill="#63609D" d="M66.5 36C66.5 36.2761 66.7239 36.5 67 36.5H71C71.2761 36.5 71.5 36.2761 71.5 36C71.5 35.7239 71.2761 35.5 71 35.5H67C66.7239 35.5 66.5 35.7239 66.5 36Z" clip-rule="evenodd" fill-rule="evenodd"></path>
<path fill="#63609D" d="M8.5 28C8.5 28.2761 8.72386 28.5 9 28.5H15C15.2761 28.5 15.5 28.2761 15.5 28C15.5 27.7239 15.2761 27.5 15 27.5H9C8.72386 27.5 8.5 27.7239 8.5 28Z" clip-rule="evenodd" fill-rule="evenodd"></path>
<path fill="#63609D" d="M49.5 64C49.5 64.2761 49.7239 64.5 50 64.5H58C58.2761 64.5 58.5 64.2761 58.5 64C58.5 63.7239 58.2761 63.5 58 63.5H50C49.7239 63.5 49.5 63.7239 49.5 64Z" clip-rule="evenodd" fill-rule="evenodd"></path>
<path fill="#63609D" d="M95.5 10C95.5 10.2761 95.7239 10.5 96 10.5H100C100.276 10.5 100.5 10.2761 100.5 10C100.5 9.72386 100.276 9.5 100 9.5H96C95.7239 9.5 95.5 9.72386 95.5 10Z" clip-rule="evenodd" fill-rule="evenodd"></path>
<path fill="#63609D" d="M49 27.5C49.2761 27.5 49.5 27.7239 49.5 28V34C49.5 34.2761 49.2761 34.5 49 34.5C48.7239 34.5 48.5 34.2761 48.5 34V28C48.5 27.7239 48.7239 27.5 49 27.5Z" clip-rule="evenodd" fill-rule="evenodd"></path>
<path fill="#63609D" d="M69 38.5C69.2761 38.5 69.5 38.2761 69.5 38V34C69.5 33.7239 69.2761 33.5 69 33.5C68.7239 33.5 68.5 33.7239 68.5 34V38C68.5 38.2761 68.7239 38.5 69 38.5Z" clip-rule="evenodd" fill-rule="evenodd"></path>
<path fill="#63609D" d="M12 31.5C12.2761 31.5 12.5 31.2761 12.5 31V25C12.5 24.7239 12.2761 24.5 12 24.5C11.7239 24.5 11.5 24.7239 11.5 25V31C11.5 31.2761 11.7239 31.5 12 31.5Z" clip-rule="evenodd" fill-rule="evenodd"></path>
<path fill="#63609D" d="M54 68.5C54.2761 68.5 54.5 68.2761 54.5 68V60C54.5 59.7239 54.2761 59.5 54 59.5C53.7239 59.5 53.5 59.7239 53.5 60V68C53.5 68.2761 53.7239 68.5 54 68.5Z" clip-rule="evenodd" fill-rule="evenodd"></path>
<path fill="#63609D" d="M98 12.5C98.2761 12.5 98.5 12.2761 98.5 12V8C98.5 7.72386 98.2761 7.5 98 7.5C97.7239 7.5 97.5 7.72386 97.5 8V12C97.5 12.2761 97.7239 12.5 98 12.5Z" clip-rule="evenodd" fill-rule="evenodd"></path>
<path fill="#FBD4FA" d="M19.9422 54.5464C21.8886 51.1061 26.3581 47.3049 30.4606 47.0008C30.6913 46.9837 30.8351 47.2326 30.719 47.4326C28.2244 51.7276 28.2025 51.7905 27.5361 53.7571C30.2921 52.4014 35.8041 51.0459 35.8041 52.4014C35.8041 53.0188 34.5176 53.9459 33.0515 54.8366C42.3045 57.765 49 66.3019 49 76.3769C49 88.8715 38.7025 99.0004 26 99.0004C13.2975 99.0004 3 88.8715 3 76.3769C3 65.9446 10.1787 57.1616 19.9422 54.5464Z" clip-rule="evenodd" fill-rule="evenodd"></path>
<path fill="white" d="M22.2573 72.4942C22.2573 76.1614 19.3988 79.1343 15.8727 79.1343C12.3465 79.1343 9.48804 76.1614 9.48804 72.4942C9.48804 68.827 12.3465 65.8542 15.8727 65.8542C19.3988 65.8542 22.2573 68.827 22.2573 72.4942Z"></path>
<path fill="white" d="M40.5977 72.4942C40.5977 76.1614 37.7392 79.1343 34.213 79.1343C30.6869 79.1343 27.8284 76.1614 27.8284 72.4942C27.8284 68.827 30.6869 65.8542 34.213 65.8542C37.7392 65.8542 40.5977 68.827 40.5977 72.4942Z"></path>
<path fill="black" d="M20.4695 72.4916C20.4695 75.1715 18.4114 77.3439 15.8725 77.3439C13.3337 77.3439 11.2756 75.1715 11.2756 72.4916C11.2756 69.8117 13.3337 67.6393 15.8725 67.6393C18.4114 67.6393 20.4695 69.8117 20.4695 72.4916Z"></path>
<path fill="black" d="M38.8098 72.4916C38.8098 75.1715 36.7517 77.3439 34.2129 77.3439C31.674 77.3439 29.6159 75.1715 29.6159 72.4916C29.6159 69.8117 31.674 67.6393 34.2129 67.6393C36.7517 67.6393 38.8098 69.8117 38.8098 72.4916Z"></path>
<path fill="white" d="M15.3618 70.9546C15.3618 72.083 14.447 72.9977 13.3187 72.9977C12.1903 72.9977 11.2756 72.083 11.2756 70.9546C11.2756 69.8262 12.1903 68.9115 13.3187 68.9115C14.447 68.9115 15.3618 69.8262 15.3618 70.9546Z"></path>
<path fill="white" d="M33.7021 70.9546C33.7021 72.083 32.7874 72.9977 31.659 72.9977C30.5306 72.9977 29.6159 72.083 29.6159 70.9546C29.6159 69.8262 30.5306 68.9115 31.659 68.9115C32.7874 68.9115 33.7021 69.8262 33.7021 70.9546Z"></path>
<path fill="white" d="M19.4481 74.5289C19.4481 75.0931 18.9907 75.5504 18.4265 75.5504C17.8623 75.5504 17.405 75.0931 17.405 74.5289C17.405 73.9647 17.8623 73.5074 18.4265 73.5074C18.9907 73.5074 19.4481 73.9647 19.4481 74.5289Z"></path>
<path fill="white" d="M37.7884 74.5289C37.7884 75.0931 37.331 75.5504 36.7668 75.5504C36.2027 75.5504 35.7453 75.0931 35.7453 74.5289C35.7453 73.9647 36.2027 73.5074 36.7668 73.5074C37.331 73.5074 37.7884 73.9647 37.7884 74.5289Z"></path>
<path fill="#2F3076" d="M17.2784 63.1727C17.2784 64.1943 16.2568 64.322 14.8522 64.4495C13.4476 64.5771 12.1706 64.0666 12.1707 63.6834C12.1707 63.3002 13.1922 62.5342 14.5968 62.2789C16.0015 62.0236 17.2784 62.151 17.2784 63.1727Z"></path>
<path fill="#2F3076" d="M33.4963 63.0247C33.4963 64.0464 34.5179 64.174 35.9225 64.3016C37.3271 64.4291 38.6041 63.9187 38.6041 63.5354C38.6041 63.1522 37.5825 62.3863 36.1779 62.1309C34.7733 61.8756 33.4963 62.0031 33.4963 63.0247Z"></path>
<path fill="#FFA2FE" d="M10.1023 79.8869C9.61255 80.1318 9.5 80.3776 9.5 80.5004C9.5 80.6232 9.61255 80.8689 10.1023 81.1138C10.5621 81.3437 11.2324 81.5004 12 81.5004C12.7676 81.5004 13.4379 81.3437 13.8977 81.1138C14.3875 80.8689 14.5 80.6232 14.5 80.5004C14.5 80.3776 14.3875 80.1318 13.8977 79.8869C13.4379 79.657 12.7676 79.5004 12 79.5004C11.2324 79.5004 10.5621 79.657 10.1023 79.8869ZM9.65507 78.9925C10.281 78.6795 11.1108 78.5004 12 78.5004C12.8892 78.5004 13.719 78.6795 14.3449 78.9925C14.941 79.2905 15.5 79.7947 15.5 80.5004C15.5 81.206 14.941 81.7102 14.3449 82.0082C13.719 82.3212 12.8892 82.5004 12 82.5004C11.1108 82.5004 10.281 82.3212 9.65507 82.0082C9.05903 81.7102 8.5 81.206 8.5 80.5004C8.5 79.7947 9.05903 79.2905 9.65507 78.9925Z" clip-rule="evenodd" fill-rule="evenodd"></path>
<path fill="#FFA2FE" d="M38.1023 79.8869C37.6125 80.1318 37.5 80.3776 37.5 80.5004C37.5 80.6232 37.6125 80.8689 38.1023 81.1138C38.5621 81.3437 39.2324 81.5004 40 81.5004C40.7676 81.5004 41.4379 81.3437 41.8977 81.1138C42.3875 80.8689 42.5 80.6232 42.5 80.5004C42.5 80.3776 42.3875 80.1318 41.8977 79.8869C41.4379 79.657 40.7676 79.5004 40 79.5004C39.2324 79.5004 38.5621 79.657 38.1023 79.8869ZM37.6551 78.9925C38.281 78.6795 39.1108 78.5004 40 78.5004C40.8892 78.5004 41.719 78.6795 42.3449 78.9925C42.941 79.2905 43.5 79.7947 43.5 80.5004C43.5 81.206 42.941 81.7102 42.3449 82.0082C41.719 82.3212 40.8892 82.5004 40 82.5004C39.1108 82.5004 38.281 82.3212 37.6551 82.0082C37.059 81.7102 36.5 81.206 36.5 80.5004C36.5 79.7947 37.059 79.2905 37.6551 78.9925Z" clip-rule="evenodd" fill-rule="evenodd"></path>
<path fill="#FFE9FE" d="M38.9985 95.0436C35.3006 97.5397 30.8237 99.0004 26 99.0004C21.1762 99.0004 16.6993 97.5397 13.0015 95.0435C16.1199 91.3478 20.7858 89.0004 26 89.0004C31.2141 89.0004 35.88 91.3478 38.9985 95.0436Z" clip-rule="evenodd" fill-rule="evenodd"></path>
<path fill="#2F3076" d="M30.4237 46.5022C31.0916 46.4527 31.4509 47.1679 31.1513 47.6837C29.9001 49.838 29.2808 50.911 28.8889 51.6922C28.6765 52.1156 28.5318 52.4511 28.3885 52.8331C29.6859 52.3104 31.2505 51.8388 32.6071 51.5719C33.4821 51.3998 34.3099 51.3046 34.9375 51.3521C35.2462 51.3755 35.56 51.4366 35.8116 51.5817C36.0914 51.743 36.3041 52.0199 36.3041 52.4014C36.3041 52.72 36.1444 53.0024 35.9773 53.2208C35.8019 53.4503 35.5638 53.6791 35.2975 53.9008C34.9838 54.1619 34.608 54.4318 34.2017 54.701C43.1317 57.9739 49.5 66.4399 49.5 76.3769C49.5 89.1554 38.9709 99.5004 26 99.5004C13.0291 99.5004 2.5 89.1554 2.5 76.3769C2.5 65.7794 9.74281 56.8551 19.6121 54.1182C20.63 52.3882 22.2349 50.6041 24.0911 49.1989C26.0083 47.7474 28.242 46.6639 30.4237 46.5022ZM30.0764 47.5435C28.2793 47.785 26.3912 48.7117 24.6947 49.9962C22.8691 51.3783 21.3132 53.1386 20.3774 54.7926C20.3113 54.9094 20.2012 54.9947 20.0716 55.0294C10.5162 57.5888 3.5 66.1816 3.5 76.3769C3.5 88.5876 13.5658 98.5004 26 98.5004C38.4342 98.5004 48.5 88.5876 48.5 76.3769C48.5 66.5307 41.9563 58.1793 32.9006 55.3133C32.7136 55.2541 32.5785 55.091 32.5551 54.8963C32.5317 54.7015 32.6243 54.5111 32.7919 54.4093C33.5195 53.9672 34.1821 53.5282 34.6577 53.1322C34.8963 52.9336 35.0715 52.7592 35.183 52.6133C35.2475 52.529 35.2777 52.4712 35.2917 52.4373C35.223 52.4044 35.0883 52.3664 34.8621 52.3493C34.3701 52.3121 33.6476 52.3864 32.8001 52.5531C31.1147 52.8847 29.0903 53.5498 27.7568 54.2058C27.5755 54.295 27.3583 54.2663 27.2064 54.133C27.0545 53.9997 26.9977 53.7881 27.0626 53.5967L27.0652 53.5889C27.3969 52.61 27.5786 52.074 27.9951 51.2438C28.3806 50.4755 28.9699 49.4495 30.0764 47.5435ZM35.3041 52.4014C35.3041 52.4021 35.3041 52.4007 35.3041 52.4014C35.3041 52.4013 35.3041 52.4012 35.3041 52.4014Z" clip-rule="evenodd" fill-rule="evenodd"></path>
<path fill="#FBD4FA" d="M8.37392 81.0646C9.85381 77.6026 5.90741 73.1514 2.94763 74.1405C-0.0121474 75.1297 0.887179 82.7662 2.4543 85.5158C4.42748 88.9779 7.88061 88.9779 7.38731 84.5267C8.37391 84.5267 9.85381 83.0429 8.37392 81.0646Z"></path>
<path fill="#28336B" d="M6.93977 76.2513C5.8261 74.8997 4.29895 74.2161 3.10612 74.6147C2.57596 74.7919 2.15734 75.2845 1.87457 76.1105C1.59336 76.9319 1.47856 78.0004 1.50327 79.1573C1.55291 81.4823 2.1596 83.989 2.8887 85.2683C3.35231 86.0817 3.89146 86.671 4.41447 87.0388C4.94219 87.4098 5.42186 87.5353 5.78716 87.4922C6.12838 87.4519 6.43748 87.2583 6.65467 86.8228C6.88151 86.3679 7.00768 85.6404 6.89035 84.5818L6.82884 84.0267H7.38731C7.6643 84.0267 8.12176 83.7883 8.3581 83.3144C8.56896 82.8916 8.61904 82.227 7.97355 81.3641L7.80083 81.1332L7.91416 80.8681C8.55581 79.367 8.03897 77.5854 6.93977 76.2513ZM8.93693 80.9968C9.60678 79.1069 8.89987 77.0576 7.71154 75.6154C6.48204 74.1232 4.5561 73.0758 2.78915 73.6663C1.83942 73.9837 1.26054 74.8166 0.92847 75.7866C0.594837 76.7612 0.477451 77.9591 0.503494 79.1787C0.555343 81.6067 1.18188 84.2931 2.0199 85.7634C2.54288 86.681 3.17531 87.3899 3.8393 87.8568C4.49859 88.3204 5.22134 88.5659 5.9043 88.4853C6.61135 88.4019 7.19636 87.9773 7.54956 87.2691C7.84623 86.6742 7.97656 85.8908 7.92331 84.9366C8.45921 84.7595 8.96753 84.3331 9.25299 83.7607C9.63058 83.0035 9.61345 82.0275 8.93693 80.9968Z" clip-rule="evenodd" fill-rule="evenodd"></path>
<path fill="#FBD4FA" d="M43.6261 81.0646C42.1462 77.6026 46.0926 73.1514 49.0524 74.1405C52.0121 75.1297 51.1128 82.7662 49.5457 85.5158C47.5725 88.9779 44.1194 88.9779 44.6127 84.5267C43.6261 84.5267 42.1462 83.0429 43.6261 81.0646Z"></path>
<path fill="#28336B" d="M45.0602 76.2513C46.1739 74.8997 47.701 74.2161 48.8939 74.6147C49.424 74.7919 49.8427 75.2845 50.1254 76.1105C50.4066 76.9319 50.5214 78.0004 50.4967 79.1573C50.4471 81.4823 49.8404 83.989 49.1113 85.2683C48.6477 86.0817 48.1085 86.671 47.5855 87.0388C47.0578 87.4098 46.5781 87.5353 46.2128 87.4922C45.8716 87.4519 45.5625 87.2583 45.3453 86.8228C45.1185 86.3679 44.9923 85.6404 45.1096 84.5818L45.1712 84.0267H44.6127C44.3357 84.0267 43.8782 83.7883 43.6419 83.3144C43.431 82.8916 43.381 82.227 44.0265 81.3641L44.1992 81.1332L44.0858 80.8681C43.4442 79.367 43.961 77.5854 45.0602 76.2513ZM43.0631 80.9968C42.3932 79.1069 43.1001 77.0576 44.2885 75.6154C45.518 74.1232 47.4439 73.0758 49.2108 73.6663C50.1606 73.9837 50.7395 74.8166 51.0715 75.7866C51.4052 76.7612 51.5225 77.9591 51.4965 79.1787C51.4447 81.6067 50.8181 84.2931 49.9801 85.7634C49.4571 86.681 48.8247 87.3899 48.1607 87.8568C47.5014 88.3204 46.7787 88.5659 46.0957 88.4853C45.3886 88.4019 44.8036 87.9773 44.4504 87.2691C44.1538 86.6742 44.0234 85.8908 44.0767 84.9366C43.5408 84.7595 43.0325 84.3331 42.747 83.7607C42.3694 83.0035 42.3866 82.0275 43.0631 80.9968Z" clip-rule="evenodd" fill-rule="evenodd"></path>
<path fill="#FEE46B" d="M28.9043 81.288C28.4259 83.0414 26.3924 86.0004 24.957 86.0004C23.5217 86.0004 21.1294 82.7127 21.0098 80.9592C20.8902 79.2057 21.847 78.0003 24.957 78.0004C28.067 78.0004 29.3828 79.5347 28.9043 81.288Z"></path>
<path fill="#2F3076" d="M22.096 79.2034C21.6427 79.5882 21.4556 80.1481 21.5086 80.9252C21.5325 81.2746 21.6759 81.7439 21.9268 82.2721C22.1742 82.793 22.5107 83.3389 22.8879 83.8345C23.2663 84.3316 23.6746 84.7635 24.0601 85.0658C24.4624 85.3812 24.7695 85.5004 24.9571 85.5004C25.1544 85.5004 25.4429 85.392 25.809 85.1129C26.1641 84.8423 26.5381 84.4524 26.8952 83.9943C27.6142 83.0721 28.2047 81.9527 28.422 81.1564C28.6159 80.4455 28.4474 79.8215 27.9386 79.3554C27.4068 78.8681 26.4421 78.5004 24.957 78.5004C23.4483 78.5003 22.5756 78.7961 22.096 79.2034ZM21.4487 78.4411C22.1951 77.8073 23.3558 77.5003 24.9571 77.5004C26.582 77.5004 27.8302 77.8998 28.6141 78.618C29.4211 79.3574 29.6712 80.3772 29.3867 81.4197C29.1255 82.3767 28.4601 83.6135 27.6839 84.6091C27.2934 85.1099 26.86 85.5693 26.4151 85.9083C25.9813 86.2389 25.4774 86.5004 24.9571 86.5004C24.427 86.5004 23.8968 86.2085 23.443 85.8527C22.9726 85.4838 22.5062 84.9842 22.0922 84.4402C21.677 83.8947 21.3032 83.2899 21.0235 82.7012C20.7474 82.1198 20.5469 81.5206 20.511 80.9932C20.4444 80.0169 20.6759 79.0973 21.4487 78.4411Z" clip-rule="evenodd" fill-rule="evenodd"></path>
<path fill="#FDD4FF" d="M103.195 30.8776L100.101 34L106.541 40L109.548 36.9651C110.343 36.1633 110.317 34.8634 109.491 34.0941L105.979 30.822C105.188 30.0854 103.955 30.11 103.195 30.8776Z"></path>
<path fill="#6766A0" d="M105.501 31.3341C104.988 30.8554 104.186 30.8714 103.692 31.3703L101.106 33.9799L106.522 39.0251L109.051 36.4724C109.567 35.9513 109.551 35.1063 109.014 34.6063L105.501 31.3341ZM102.697 30.385C103.724 29.3487 105.388 29.3154 106.456 30.3098L109.968 33.5819C111.083 34.6206 111.118 36.3754 110.046 37.4578L106.561 40.9749L99.0956 34.0201L102.697 30.385Z" clip-rule="evenodd" fill-rule="evenodd"></path>
<path fill="#FDD4FF" d="M60.4679 82.5L57.9908 80L63.4404 68L99.3906 32.2072C99.7826 31.8169 100.417 31.8191 100.806 32.2121L108.316 39.7913C108.704 40.183 108.702 40.8148 108.311 41.2038L72.3578 77L60.4679 82.5Z"></path>
<path fill="#FEFFBD" d="M106.329 43.2039L71.8624 77.5L62.9449 68.5L97.4089 34.2068C97.801 33.8167 98.4353 33.819 98.8246 34.2119L106.334 41.7912C106.722 42.1829 106.72 42.8149 106.329 43.2039Z"></path>
<path fill="#6766A0" d="M98.8966 31.7112C99.5631 31.0476 100.642 31.0513 101.304 31.7194L108.813 39.2987C109.473 39.9645 109.469 41.0386 108.805 41.6999L72.8517 77.4961C72.7936 77.5538 72.7259 77.6009 72.6516 77.6353L60.7617 83.1353C60.4943 83.259 60.178 83.202 59.9706 82.9927L57.4935 80.4927C57.2891 80.2863 57.2333 79.9751 57.3534 79.7106L62.803 67.7106C62.8379 67.6336 62.8865 67.5636 62.9464 67.5039L98.8966 31.7112ZM100.309 32.7048C100.192 32.5869 100.002 32.5862 99.8844 32.7033L64.0248 68.4058L58.8277 79.8501L60.6196 81.6586L71.9516 76.4166L107.817 40.7078C107.935 40.5911 107.935 40.4015 107.819 40.284L100.309 32.7048Z" clip-rule="evenodd" fill-rule="evenodd"></path>
<path fill="#6766A0" d="M59.4041 82.0581L57.4225 83.5581L56.5775 82.4419L58.5592 80.9419L59.4041 82.0581Z" clip-rule="evenodd" fill-rule="evenodd"></path>
<path fill="#6766A0" d="M71.3651 77.9927L62.4477 68.9927L63.4422 68.0073L72.3596 77.0073L71.3651 77.9927Z" clip-rule="evenodd" fill-rule="evenodd"></path>
<path fill="#6766A0" d="M107.035 42.9927L97.622 33.4927L98.6165 32.5073L108.029 42.0073L107.035 42.9927Z" clip-rule="evenodd" fill-rule="evenodd"></path>
<path fill="#6766A0" d="M95.6403 35.9927L93.1633 33.4927L94.1578 32.5073L96.6348 35.0073L95.6403 35.9927Z" clip-rule="evenodd" fill-rule="evenodd"></path>
<path fill="#6766A0" d="M98.1166 28.5027C98.3912 28.7748 98.3932 29.2181 98.1211 29.4927L77.8092 49.9927C77.0664 50.7423 76.2573 51.4299 75.2182 51.9236C74.1745 52.4193 72.9405 52.7 71.367 52.7C70.9804 52.7 70.667 52.3866 70.667 52C70.667 51.6134 70.9804 51.3 71.367 51.3C72.766 51.3 73.7894 51.0524 74.6175 50.659C75.4501 50.2635 76.1273 49.7011 76.8147 49.0073L97.1266 28.5073C97.3987 28.2327 97.8419 28.2306 98.1166 28.5027Z" clip-rule="evenodd" fill-rule="evenodd"></path>
</svg>
